<?xml version="1.0" encoding="utf-8"?>
<!-- Generator: Adobe Illustrator 23.0.3, SVG Export Plug-In . SVG Version: 6.00 Build 0)  -->
<svg version="1.1" id="_x31_" xmlns="http://www.w3.org/2000/svg" xmlns:xlink="http://www.w3.org/1999/xlink" x="0px" y="0px"
	 viewBox="0 0 771.01 209.54" style="enable-background:new 0 0 771.01 209.54;" xml:space="preserve">
<style type="text/css">
	.st0{fill:none;}
	.st1{fill:#FFFFFF;}
	.st2{fill:#E7436D;}
	.st3{fill:#3B394E;}
	.st4{fill:#55489A;}
	.st5{fill:#E7332E;}
	.st6{fill:#00A17A;}
</style>
<pattern  x="-769.9" y="-468.52" width="127" height="103.5" patternUnits="userSpaceOnUse" id="New_Pattern_Swatch_16" viewBox="0 -103.5 127 103.5" style="overflow:visible;">
	<g>
		<rect y="-103.5" class="st0" width="127" height="103.5"/>
		<rect y="-103.5" class="st1" width="127" height="103.5"/>
		<g>
			<circle class="st2" cx="24.5" cy="-5" r="5"/>
			<circle class="st3" cx="41.25" cy="-33.25" r="3.25"/>
			<circle class="st4" cx="70.5" cy="-23" r="12.5"/>
			
				<ellipse transform="matrix(0.7071 -0.7071 0.7071 0.7071 60.3117 31.1713)" class="st5" cx="67.78" cy="-57.22" rx="8.28" ry="8.28"/>
			<path class="st2" d="M28.75-57.62c0-3.93-3.19-7.12-7.12-7.12c-3.93,0-7.12,3.19-7.12,7.12c0,3.93,3.19,7.12,7.12,7.12
				C25.56-50.5,28.75-53.69,28.75-57.62z"/>
			<circle class="st3" cx="100" cy="-56" r="3.5"/>
			<circle class="st6" cx="46.25" cy="-80.25" r="5.75"/>
			<circle class="st3" cx="75.75" cy="-98.25" r="2.75"/>
			<circle class="st2" cx="106" cy="-20.5" r="3.5"/>
			<circle class="st5" cx="7.75" cy="-29.75" r="7.75"/>
			<circle class="st4" cx="28.75" cy="-101.25" r="2.25"/>
			<circle class="st6" cx="123" cy="-97" r="4"/>
			<circle class="st5" cx="96.25" cy="-85.75" r="5.75"/>
			<rect y="-103.5" class="st0" width="127" height="103.5"/>
		</g>
	</g>
</pattern>
<path class="st1" d="M372.69,92.88c-1.13-0.55-2.29-0.83-3.46-0.83c-1.65,0-3.9,0.67-5.26,3.85l-9.39,21.9l-10.33-21.93
	c-1.52-3.21-3.87-3.89-5.57-3.89c-1.04,0-2.05,0.26-2.98,0.77c-2.05,1.07-3.13,2.72-3.13,4.79c0,0.82,0.21,1.64,0.62,2.43
	l15.25,29.71l-6.25,13.13c-0.36,0.74-0.54,1.5-0.54,2.26c0,2.36,1.26,4.02,3.64,4.82c0.76,0.25,1.51,0.38,2.25,0.38
	c1.64,0,3.9-0.66,5.39-3.81l22.06-46.22c0.45-0.96,0.68-1.9,0.68-2.79C375.66,95.39,374.63,93.82,372.69,92.88z"/>
<path class="st1" d="M403.36,91.79c-3.1,0-6.09,0.83-8.87,2.46c-1.38,0.8-2.64,1.8-3.77,2.98l-0.13-0.76c-0.67-3.7-3.09-4.47-5-4.47
	c-1.73,0-3.1,0.67-3.96,1.92c-0.58,0.83-0.87,1.84-0.87,3.02v32.15c0,1,0.25,1.89,0.75,2.62c1.04,1.61,2.72,2.43,5,2.43
	c1.83,0,3.32-0.58,4.44-1.73c0.86-0.9,1.3-2.01,1.3-3.32v-17.4c0-1.99,0.87-3.97,2.58-5.9c2.16-2.47,4.42-3.72,6.72-3.72
	c2.09,0,3.49,0.92,4.42,2.9c0.61,1.31,0.92,2.98,0.92,4.95v19.18c0,0.97,0.25,1.85,0.75,2.62c1.04,1.61,2.71,2.43,4.96,2.43
	c1.97,0,3.53-0.64,4.66-1.92c0.74-0.86,1.12-1.92,1.12-3.13v-20.24c0-5.39-1.26-9.53-3.74-12.3
	C411.82,93.4,408.03,91.79,403.36,91.79z"/>
<path class="st1" d="M458.63,120.13c-1.13-0.99-2.37-1.49-3.69-1.49c-1.45,0-2.69,0.63-3.59,1.8c-2.12,2.65-4.38,3.94-6.91,3.94
	c-2.65,0-4.84-1.11-6.69-3.4c-1.68-2.1-2.54-4.77-2.54-7.94c0-3.13,0.75-5.77,2.24-7.83c1.72-2.4,3.95-3.57,6.8-3.57
	c2.49,0,4.6,1.11,6.48,3.4c1.05,1.29,2.37,1.94,3.95,1.94c1.36,0,2.59-0.46,3.65-1.38c1.19-1.05,1.8-2.33,1.8-3.82
	c0-1.85-0.9-3.67-2.67-5.41c-3.23-3.18-7.66-4.8-13.14-4.8c-1.94,0-3.83,0.23-5.63,0.69c-5.64,1.45-9.89,4.77-12.63,9.88
	c-1.74,3.23-2.63,6.87-2.63,10.8c0,6.17,1.88,11.32,5.58,15.3c3.91,4.22,9.1,6.36,15.43,6.36c6.22,0,11.01-1.89,14.25-5.62
	c1.27-1.47,1.92-2.99,1.92-4.52C460.62,122.69,459.94,121.24,458.63,120.13z"/>
<path class="st1" d="M533.35,90.55c-5.8,0-10.65,1.95-14.39,5.79c-3.86,3.93-5.81,9.19-5.81,15.61c0,5.98,1.64,10.98,4.89,14.86
	c3.72,4.49,8.85,6.76,15.24,6.76c7.31,0,12.89-2.86,16.58-8.49c2.38-3.64,3.58-8.05,3.58-13.09c0-6.42-1.97-11.7-5.85-15.68
	C543.88,92.49,539.09,90.55,533.35,90.55z M539.77,119.97c-1.53,2.33-3.63,3.46-6.41,3.46c-3.51,0-5.94-1.68-7.42-5.12
	c-0.77-1.8-1.15-3.95-1.15-6.4c0-3.2,0.69-5.85,2.05-7.9c1.58-2.38,3.68-3.54,6.42-3.54c2.72,0,4.81,1.1,6.4,3.38
	c1.44,2.04,2.17,4.75,2.17,8.06C541.82,115.19,541.13,117.9,539.77,119.97z"/>
<path class="st1" d="M597.5,77.58c-1.05-1.61-2.7-2.43-4.92-2.43c-1.97,0-3.53,0.64-4.63,1.92c-0.74,0.86-1.12,1.91-1.12,3.1v14.01
	c-2.64-2.26-6.11-3.4-10.35-3.4c-6.3,0-11.38,2.64-15.07,7.84c-2.68,3.77-4.04,8.28-4.04,13.42c0,5.25,1.26,9.78,3.73,13.46
	c3.53,5.27,8.62,7.94,15.12,7.94c3.46,0,6.53-0.88,9.14-2.6c1.09-0.72,2.04-1.6,2.86-2.62l0.12,0.62c0.53,2.83,2.25,4.32,4.96,4.32
	c1.67,0,2.99-0.58,3.91-1.72c0.68-0.84,1.03-1.94,1.03-3.26V80.17C598.24,79.22,597.99,78.36,597.5,77.58z M586.9,109.78v2.91
	c0,3.33-1.11,6.04-3.41,8.29c-1.66,1.66-3.48,2.46-5.56,2.46c-3.21,0-5.57-1.44-7.21-4.42c-1.05-1.89-1.58-4.25-1.58-6.99
	c0-3.16,0.75-5.8,2.24-7.87c1.68-2.33,3.86-3.46,6.66-3.46c1.61,0,3.07,0.43,4.47,1.33C585.47,103.9,586.9,106.44,586.9,109.78z"/>
<path class="st1" d="M245.27,69.83c0.63-0.54,1.3-1.04,2.02-1.5c1.13-0.71,2.31-1.26,3.52-1.67c1.03-0.34,1.09-1.78,0.1-2.2
	c-3.7-1.57-7.93-1.76-11.85-0.4c-10.66-7.31-25.35-6.23-34.82,3.24c-5.35,5.35-8.02,12.36-8.02,19.36c0,3.78-1.68,7.57-5.03,10.14
	c-4.62,3.55-11.33,3.4-15.81-0.33c-0.04-0.03-0.08-0.07-0.12-0.1c-1.77-1.51-4.54-0.38-4.48,1.94c0.3,11.65,5.39,23.2,15.26,31.44
	c15.72,13.13,39.23,12.87,54.69-0.56C258.56,113.7,260.06,87.2,245.27,69.83z M190.27,123.99c0,0,7.98-35.34,21.66-21.66
	C225.61,116.01,190.27,123.99,190.27,123.99z M230.44,76.3c-0.66,0.67-1.59,1.05-2.52,1.05c-0.95,0-1.85-0.38-2.52-1.05
	c-0.67-0.64-1.05-1.57-1.05-2.52c0-0.21,0.02-0.45,0.07-0.69c0.05-0.21,0.1-0.45,0.19-0.67c0.1-0.21,0.21-0.43,0.33-0.62
	s0.29-0.38,0.45-0.55c1.33-1.31,3.71-1.31,5.03,0c0.67,0.66,1.05,1.59,1.05,2.52C231.49,74.73,231.11,75.66,230.44,76.3z"/>
<path class="st1" d="M305.15,60.95c5.63,0,10.67,1.39,15.13,4.17c4.23,2.65,6.35,5.48,6.35,8.48c0,1.5-0.51,2.81-1.54,3.93
	c-1.17,1.28-2.57,1.92-4.2,1.92c-1.46,0-2.96-0.8-4.5-2.39c-3.34-3.47-7.1-5.2-11.27-5.2c-3.32,0-6,0.62-8.06,1.87
	c-2.37,1.44-3.56,3.54-3.56,6.32c0,2.47,1.07,4.53,3.22,6.18c1.6,1.25,5.42,2.86,11.45,4.83c7.83,2.53,13.18,5.04,16.03,7.54
	c4.26,3.75,6.39,8.56,6.39,14.43c0,6.87-2.52,12.24-7.54,16.11c-4.54,3.47-10.45,5.2-17.7,5.2c-6.86,0-12.9-1.81-18.13-5.43
	c-4.94-3.43-7.42-6.78-7.42-10.02c0-1.34,0.4-2.54,1.2-3.61c1.11-1.53,2.53-2.29,4.24-2.29c1.23,0,2.36,0.42,3.39,1.26
	c0.31,0.28,0.93,0.92,1.84,1.92c4.31,4.62,9.27,6.93,14.88,6.93c3.74,0,6.77-0.76,9.09-2.29c2.51-1.62,3.77-3.92,3.77-6.89
	c0-3.03-1.31-5.46-3.94-7.31c-1.77-1.22-5.76-2.89-11.96-5.01c-6.57-2.25-11.43-4.57-14.58-6.98c-3.97-3.06-5.96-7.65-5.96-13.77
	c0-4.96,1.61-9.23,4.84-12.79C290.87,63.32,297.06,60.95,305.15,60.95z"/>
<path class="st1" d="M480.23,107.62v21.69c0,1.09-0.31,2.06-0.94,2.9c-1.19,1.59-3.08,2.39-5.67,2.39c-2.22,0-3.95-0.62-5.2-1.87
	c-0.91-0.91-1.36-2.04-1.36-3.42V74.32c0-7.21,3.59-10.82,10.77-10.82h10.02c7.4,0,13.6,1.47,18.6,4.4c6.46,3.81,9.7,9.49,9.7,17.05
	c0,8.09-2.98,14.05-8.95,17.89c-4.93,3.18-11.51,4.78-19.72,4.78H480.23z M480.23,96.8h7.54c4.62,0,8.21-1,10.77-3
	c2.53-2,3.79-4.84,3.79-8.52c0-4.09-1.7-7.07-5.11-8.95c-2.31-1.28-5.31-1.92-8.99-1.92h-5.9c-1.41,0-2.11,0.7-2.11,2.11V96.8z"/>
</svg>
