<svg xmlns="http://www.w3.org/2000/svg" viewBox="0 0 224.06 64.3"><defs><style>.cls-1,.cls-2{fill-rule:evenodd;}.cls-2{fill:#fff;}</style></defs><title>app-store</title><g id="レイヤー_2" data-name="レイヤー 2"><g id="レイヤー_1-2" data-name="レイヤー 1"><g id="app-store"><g id="Group"><path id="Shape" class="cls-1" d="M224.06,57.85a6.45,6.45,0,0,1-6.45,6.45H6.46A6.45,6.45,0,0,1,0,57.85V6.45A6.45,6.45,0,0,1,6.46,0H217.6a6.45,6.45,0,0,1,6.45,6.45h0v51.4Z"/><g id="Shape-2"><path id="パス_128" data-name="パス 128" class="cls-2" d="M49.21,31.79a9.75,9.75,0,0,1,4.65-8.18A10,10,0,0,0,46,19.36c-3.31-.35-6.52,2-8.21,2s-4.32-1.95-7.11-1.89a10.48,10.48,0,0,0-8.82,5.38c-3.81,6.6-1,16.3,2.68,21.64,1.83,2.61,4,5.53,6.76,5.43s3.76-1.74,7.06-1.74,4.23,1.74,7.08,1.68,4.78-2.63,6.55-5.26a21.63,21.63,0,0,0,3-6.1,9.46,9.46,0,0,1-5.76-8.69Z"/><path id="パス_129" data-name="パス 129" class="cls-2" d="M43.82,15.85A9.61,9.61,0,0,0,46,9a9.77,9.77,0,0,0-6.32,3.27,9.14,9.14,0,0,0-2.25,6.63A8.09,8.09,0,0,0,43.82,15.85Z"/></g><g id="Shape-3"><path id="パス_130" data-name="パス 130" class="cls-2" d="M88.78,51.52H85l-2.1-6.58H75.58l-2,6.58H69.87l7.21-22.39h4.45l7.25,22.39Zm-6.54-9.34-1.89-5.85c-.2-.6-.58-2-1.13-4.22h-.07c-.22,1-.58,2.36-1.06,4.22l-1.86,5.85Z"/><path id="パス_131" data-name="パス 131" class="cls-2" d="M107.32,43.24a9.17,9.17,0,0,1-2.23,6.51,6.52,6.52,0,0,1-5,2.13,5,5,0,0,1-4.59-2.29h-.07V58.1H91.89V40.69c0-1.73,0-3.5-.13-5.32h3.16l.2,2.56h.07a6.39,6.39,0,0,1,10.22-.63A8.9,8.9,0,0,1,107.32,43.24Zm-3.65.13a6.71,6.71,0,0,0-1.06-3.89,3.67,3.67,0,0,0-3.12-1.6,3.75,3.75,0,0,0-2.41.88,4.05,4.05,0,0,0-1.41,2.32,5,5,0,0,0-.17,1.09v2.69a4.35,4.35,0,0,0,1.08,3,3.59,3.59,0,0,0,2.81,1.21,3.66,3.66,0,0,0,3.15-1.56,6.89,6.89,0,0,0,1.13-4.12Z"/><path id="パス_132" data-name="パス 132" class="cls-2" d="M125.89,43.24a9.17,9.17,0,0,1-2.23,6.51,6.5,6.5,0,0,1-5,2.13,4.93,4.93,0,0,1-4.58-2.29h-.07V58.1h-3.59V40.69c0-1.73,0-3.5-.13-5.32h3.15l.2,2.56h.07A6.39,6.39,0,0,1,124,37.3,8.8,8.8,0,0,1,125.89,43.24Zm-3.65.13a6.64,6.64,0,0,0-1.07-3.89,3.67,3.67,0,0,0-3.12-1.6,3.73,3.73,0,0,0-2.41.88,4.06,4.06,0,0,0-1.41,2.31,5,5,0,0,0-.17,1.09v2.69a4.33,4.33,0,0,0,1.08,3A3.59,3.59,0,0,0,118,49a3.66,3.66,0,0,0,3.15-1.56,6.75,6.75,0,0,0,1.14-4.1Z"/><path id="パス_133" data-name="パス 133" class="cls-2" d="M146.66,45.24a6,6,0,0,1-2,4.66,8.82,8.82,0,0,1-6.1,2,10.69,10.69,0,0,1-5.8-1.4l.83-3a9.86,9.86,0,0,0,5.18,1.43,5,5,0,0,0,3.16-.91,3,3,0,0,0,1.13-2.45,3.14,3.14,0,0,0-.93-2.3,8.73,8.73,0,0,0-3.09-1.73q-5.88-2.19-5.88-6.42a5.74,5.74,0,0,1,2.06-4.53,8.12,8.12,0,0,1,5.49-1.76,10.85,10.85,0,0,1,5.08,1.06l-.9,2.92a8.77,8.77,0,0,0-4.29-1,4.39,4.39,0,0,0-3,.93,2.65,2.65,0,0,0-.9,2,2.71,2.71,0,0,0,1,2.19A11.61,11.61,0,0,0,141,38.63a11.11,11.11,0,0,1,4.25,2.72,5.71,5.71,0,0,1,1.37,3.89Z"/><path id="パス_134" data-name="パス 134" class="cls-2" d="M158.52,38.06h-4V45.9c0,2,.7,3,2.09,3a6.06,6.06,0,0,0,1.59-.17l.1,2.72a8.24,8.24,0,0,1-2.79.4,4.3,4.3,0,0,1-3.32-1.3q-1.2-1.3-1.2-4.35V38.05h-2.35V35.36h2.36v-3l3.52-1.06v4h4v2.7Z"/><path id="パス_135" data-name="パス 135" class="cls-2" d="M176.37,43.31a8.85,8.85,0,0,1-2.13,6.12,7.61,7.61,0,0,1-5.92,2.46,7.22,7.22,0,0,1-5.67-2.36,8.58,8.58,0,0,1-2.11-6,8.78,8.78,0,0,1,2.18-6.15A7.5,7.5,0,0,1,168.58,35a7.33,7.33,0,0,1,5.71,2.36,8.41,8.41,0,0,1,2.08,5.91Zm-3.73.11a7.23,7.23,0,0,0-1-3.83,3.53,3.53,0,0,0-3.22-1.93,3.59,3.59,0,0,0-3.29,1.93,7.41,7.41,0,0,0-1,3.9,7.24,7.24,0,0,0,1,3.83,3.66,3.66,0,0,0,6.48,0,7.37,7.37,0,0,0,1-3.87Z"/><path id="パス_136" data-name="パス 136" class="cls-2" d="M188,38.52a6.09,6.09,0,0,0-1.13-.1A3.41,3.41,0,0,0,184,39.85a5.39,5.39,0,0,0-.9,3.19v8.47h-3.59l0-11.06c0-1.86,0-3.56-.14-5.08h3.13l.13,3.09h.1a5.51,5.51,0,0,1,1.79-2.56,4.33,4.33,0,0,1,2.59-.86,5.46,5.46,0,0,1,.9.07l0,3.41Z"/><path id="パス_137" data-name="パス 137" class="cls-2" d="M204.07,42.68a8.09,8.09,0,0,1-.13,1.63H193.18A4.68,4.68,0,0,0,194.74,48a5.38,5.38,0,0,0,3.52,1.13,12,12,0,0,0,4.36-.76l.56,2.49a13.57,13.57,0,0,1-5.41,1,7.84,7.84,0,0,1-5.9-2.21,8.16,8.16,0,0,1-2.14-5.93,9.23,9.23,0,0,1,2-6.08A6.9,6.9,0,0,1,197.38,35a6,6,0,0,1,5.29,2.59,8.7,8.7,0,0,1,1.4,5.07Zm-3.42-.93A4.87,4.87,0,0,0,200,39a3.14,3.14,0,0,0-2.86-1.5A3.42,3.42,0,0,0,194.23,39a5.35,5.35,0,0,0-1.06,2.79Z"/></g><g id="Shape-4"><path id="パス_138" data-name="パス 138" class="cls-2" d="M81.05,15.34a5.52,5.52,0,0,1-1.78,4.47,7.15,7.15,0,0,1-4.68,1.39A20.27,20.27,0,0,1,72,21.07V10.24a19.27,19.27,0,0,1,3-.23,6.59,6.59,0,0,1,4.36,1.25A5.16,5.16,0,0,1,81.05,15.34Zm-1.86.05a4,4,0,0,0-1-3,4,4,0,0,0-3-1,7.49,7.49,0,0,0-1.42.11v8.23A9.48,9.48,0,0,0,75,19.8a4.22,4.22,0,0,0,3.13-1.12,4.59,4.59,0,0,0,1.1-3.29Z"/><path id="パス_139" data-name="パス 139" class="cls-2" d="M90.91,17.07a4.37,4.37,0,0,1-1,3A3.77,3.77,0,0,1,87,21.29a3.54,3.54,0,0,1-2.78-1.16,4.22,4.22,0,0,1-1-2.92,4.33,4.33,0,0,1,1.07-3A3.72,3.72,0,0,1,87.1,13a3.64,3.64,0,0,1,2.81,1.16,4.24,4.24,0,0,1,1,2.9Zm-1.83.06a3.63,3.63,0,0,0-.47-1.88A1.75,1.75,0,0,0,87,14.3a1.77,1.77,0,0,0-1.62.95,3.67,3.67,0,0,0-.47,1.92,3.53,3.53,0,0,0,.47,1.88A1.78,1.78,0,0,0,87,20a1.76,1.76,0,0,0,1.58-1,3.55,3.55,0,0,0,.49-1.9Z"/><path id="パス_140" data-name="パス 140" class="cls-2" d="M104.13,13.17l-2.48,7.93H100l-1-3.45a25.2,25.2,0,0,1-.64-2.56h0a18.75,18.75,0,0,1-.63,2.56L96.6,21.1H95l-2.33-7.93h1.81l.9,3.77q.33,1.33.54,2.55h0c.13-.66.35-1.51.65-2.53l1.13-3.79h1.44l1.08,3.71c.26.9.47,1.77.64,2.61h0a23.24,23.24,0,0,1,.54-2.61l1-3.71Z"/><path id="パス_141" data-name="パス 141" class="cls-2" d="M113.27,21.1h-1.76V16.56c0-1.4-.53-2.1-1.6-2.1a1.59,1.59,0,0,0-1.27.58,2,2,0,0,0-.49,1.36v4.7h-1.76V15.44c0-.7,0-1.45-.06-2.27h1.55l.08,1.24H108a2.62,2.62,0,0,1,.91-1,3,3,0,0,1,1.6-.45,2.56,2.56,0,0,1,1.85.72,3.44,3.44,0,0,1,.91,2.63V21.1Z"/><path id="パス_142" data-name="パス 142" class="cls-2" d="M118.13,21.11h-1.76V9.54h1.76Z"/><path id="パス_143" data-name="パス 143" class="cls-2" d="M128.52,17.07a4.37,4.37,0,0,1-1,3,3.77,3.77,0,0,1-2.91,1.22,3.54,3.54,0,0,1-2.78-1.16,4.28,4.28,0,0,1-1-2.92,4.28,4.28,0,0,1,1.07-3A3.75,3.75,0,0,1,124.7,13a3.64,3.64,0,0,1,2.81,1.16,4.2,4.2,0,0,1,1,2.9Zm-1.83.06a3.63,3.63,0,0,0-.47-1.88,1.75,1.75,0,0,0-1.58-.95,1.77,1.77,0,0,0-1.62.95,3.67,3.67,0,0,0-.47,1.92,3.63,3.63,0,0,0,.47,1.88,1.78,1.78,0,0,0,1.6.95,1.76,1.76,0,0,0,1.58-1,3.55,3.55,0,0,0,.49-1.9Z"/><path id="パス_144" data-name="パス 144" class="cls-2" d="M137.05,21.1h-1.58l-.13-.92h-.05a2.73,2.73,0,0,1-2.32,1.1,2.36,2.36,0,0,1-1.81-.72,2.26,2.26,0,0,1-.62-1.62,2.46,2.46,0,0,1,1.22-2.22,6.27,6.27,0,0,1,3.42-.75v-.15c0-1.05-.55-1.57-1.65-1.57a3.72,3.72,0,0,0-2.07.59l-.36-1.16a5,5,0,0,1,2.72-.68q3.1,0,3.11,3.28V19.2a14.8,14.8,0,0,0,.12,1.9Zm-1.83-2.72V17.16c-1.95,0-2.92.5-2.92,1.6a1.2,1.2,0,0,0,.34.93,1.25,1.25,0,0,0,.86.31,1.76,1.76,0,0,0,1.08-.37,1.53,1.53,0,0,0,.64-1.25Z"/><path id="パス_145" data-name="パス 145" class="cls-2" d="M147.07,21.11H145.5l-.08-1.27h0a2.62,2.62,0,0,1-2.55,1.45,3,3,0,0,1-2.38-1.13,4.42,4.42,0,0,1-.95-2.92,4.6,4.6,0,0,1,1-3.12A3.16,3.16,0,0,1,143,13a2.39,2.39,0,0,1,2.24,1.08h0V9.54H147V19q0,1.14.06,2.13Zm-1.82-3.35V16.44a2.65,2.65,0,0,0-.05-.56,2,2,0,0,0-.64-1.07,1.72,1.72,0,0,0-1.18-.43,1.82,1.82,0,0,0-1.55.78,3.33,3.33,0,0,0-.56,2,3.15,3.15,0,0,0,.54,1.91,1.82,1.82,0,0,0,1.54.78,1.7,1.7,0,0,0,1.39-.65,2.18,2.18,0,0,0,.51-1.45Z"/><path id="パス_146" data-name="パス 146" class="cls-2" d="M162.16,17.07a4.37,4.37,0,0,1-1,3,3.77,3.77,0,0,1-2.91,1.22,3.54,3.54,0,0,1-2.78-1.16,4.28,4.28,0,0,1-1-2.92,4.28,4.28,0,0,1,1.07-3A3.7,3.7,0,0,1,158.34,13a3.64,3.64,0,0,1,2.81,1.16,4.2,4.2,0,0,1,1,2.9Zm-1.83.06a3.53,3.53,0,0,0-.47-1.88,1.75,1.75,0,0,0-1.58-.95,1.77,1.77,0,0,0-1.62.95,3.67,3.67,0,0,0-.47,1.92,3.63,3.63,0,0,0,.47,1.88,1.8,1.8,0,0,0,2.44.74,1.78,1.78,0,0,0,.75-.76,3.63,3.63,0,0,0,.48-1.9Z"/><path id="パス_147" data-name="パス 147" class="cls-2" d="M171.64,21.1h-1.76V16.56c0-1.4-.53-2.1-1.6-2.1A1.59,1.59,0,0,0,167,15a2,2,0,0,0-.49,1.36v4.7h-1.77V15.44c0-.7,0-1.45-.06-2.27h1.55l.08,1.24h.05a2.7,2.7,0,0,1,.91-1,3,3,0,0,1,1.6-.45,2.52,2.52,0,0,1,1.84.72,3.44,3.44,0,0,1,.91,2.63V21.1Z"/><path id="パス_148" data-name="パス 148" class="cls-2" d="M183.51,14.49h-1.95v3.86c0,1,.35,1.47,1,1.47a3,3,0,0,0,.79-.08l0,1.34a4,4,0,0,1-1.37.2,2.11,2.11,0,0,1-1.63-.64,3.15,3.15,0,0,1-.59-2.14v-4h-1.16V13.17h1.16V11.72l1.73-.52v2h1.94v1.32Z"/><path id="パス_149" data-name="パス 149" class="cls-2" d="M192.85,21.11h-1.76V16.6c0-1.42-.53-2.13-1.6-2.13a1.67,1.67,0,0,0-1.68,1.24,2,2,0,0,0-.08.63v4.77H186V9.54h1.76v4.78h0a2.66,2.66,0,0,1,2.38-1.3,2.45,2.45,0,0,1,1.81.72,3.61,3.61,0,0,1,.9,2.66v4.71Z"/><path id="パス_150" data-name="パス 150" class="cls-2" d="M202.48,16.76a4.25,4.25,0,0,1-.07.8h-5.29a2.33,2.33,0,0,0,.77,1.8,2.58,2.58,0,0,0,1.73.55,5.79,5.79,0,0,0,2.14-.38l.28,1.23a6.72,6.72,0,0,1-2.66.49,3.81,3.81,0,0,1-2.9-1.09,4,4,0,0,1-1-2.91,4.5,4.5,0,0,1,1-3A3.38,3.38,0,0,1,199.19,13a2.92,2.92,0,0,1,2.59,1.27,4.37,4.37,0,0,1,.7,2.5Zm-1.69-.45a2.4,2.4,0,0,0-.34-1.36,1.53,1.53,0,0,0-1.4-.73,1.66,1.66,0,0,0-1.4.72,2.62,2.62,0,0,0-.52,1.37Z"/></g></g></g></g></g></svg>