<svg xmlns="http://www.w3.org/2000/svg" viewBox="0 0 405.09 95.25"><defs><style>.cls-1{isolation:isolate;}.cls-2{fill:#3b4043;}</style></defs><title>app-info</title><g id="レイヤー_2" data-name="レイヤー 2"><g id="レイヤー_1-2" data-name="レイヤー 1"><g class="cls-1"><path class="cls-2" d="M18.26,2.33c1.54,0,2.33.72,2.33,2.11,0,2.28-2.09,6.74-7.3,8.71a14.11,14.11,0,0,1-2.4.65A12.76,12.76,0,0,1,6.09,22a2.64,2.64,0,0,1-1.8.77,2.14,2.14,0,0,1-2.14-2.14c0-.72.22-1.06,1.18-1.75,2.86-2.09,3.77-4.08,3.86-8.45,0-1.51,0-2.78,2.06-2.78s2,1.32,2,2.38c3.22-.86,4.63-3.29,4.63-3.7,0-.17-.1-.24-.34-.24H1.49C.53,6.07,0,5.4,0,4.2S.53,2.33,1.49,2.33Z"/><path class="cls-2" d="M38.7,3.29a2,2,0,0,1,.38,0,3.09,3.09,0,1,1,6.17-.21,3.07,3.07,0,0,1-3.38,3.07,1.62,1.62,0,0,1,0,.31c0,.86-1,10.1-11.09,15.53A6.65,6.65,0,0,1,28,23a2.24,2.24,0,0,1-2.11-2.26c0-1,.46-1.42,2-2.11a16.33,16.33,0,0,0,8-6.91,13.24,13.24,0,0,0,1.61-4.27c0-.22-.12-.29-.5-.29H24c-1,0-1.54-.7-1.54-1.94S23,3.29,24,3.29Zm2.36-.19A1.09,1.09,0,1,0,42.14,2,1.08,1.08,0,0,0,41.06,3.1Z"/><path class="cls-2" d="M52.14,13c0,1-.72,1.61-2,1.61s-2-.58-2-1.61V2.81c0-1,.72-1.61,2-1.61s2,.58,2,1.61ZM59.51,2.76c0-1,.72-1.58,2-1.58s2,.55,2,1.58v7.1c0,4.46-.41,9.12-7,12.22a8.88,8.88,0,0,1-3.43,1A2.15,2.15,0,0,1,51,20.9c0-1,.38-1.39,1.58-1.78,2.76-.86,5.86-2,6.65-6.1a25.42,25.42,0,0,0,.29-4.49V2.76Z"/><path class="cls-2" d="M72.81,7.37l-2.64.48A6.65,6.65,0,0,1,69,8,1.92,1.92,0,0,1,67.2,5.9a1.73,1.73,0,0,1,1.06-1.8c1.51-.48,15.31-1.78,17.47-1.78,1.54,0,2.11.55,2.11,2S87.1,6,86.06,6.05a8.11,8.11,0,0,0-3.7,1c-.62.38-4.66,2.86-4.66,6.94,0,2.88,1.75,4.34,5.52,4.61,1.15.1,1.2.1,1.49.26a1.64,1.64,0,0,1,.79,1.54c0,1.32-.79,2-2.26,2-4.44,0-9.26-2.18-9.26-7.9a9.48,9.48,0,0,1,4.32-8C76.5,6.82,74.75,7,72.81,7.37ZM85.24,9.22a4.27,4.27,0,0,1,1.13,2A1.35,1.35,0,0,1,85,12.48c-.41,0-.58-.12-1-.74-.24-.36-.79-1.1-1.22-1.63a1.24,1.24,0,0,1-.34-.79A1.39,1.39,0,0,1,83.78,8.1C84.23,8.09,84.5,8.31,85.24,9.22Zm2.88-1.51a3.91,3.91,0,0,1,1.06,1.94,1.34,1.34,0,0,1-1.37,1.22c-.41,0-.58-.12-1-.72C86.61,9.81,86,9,85.63,8.54a1.14,1.14,0,0,1-.34-.77,1.36,1.36,0,0,1,1.37-1.2C87.11,6.58,87.38,6.77,88.12,7.71Z"/><path class="cls-2" d="M102.16,4.88c1,0,1.56.62,1.56,1.73a1.58,1.58,0,0,1-1.32,1.75,20.88,20.88,0,0,1-3.19.26c-.1.84-.17,1.78-.29,2.67.53,0,3-.26,3.29-.26.94,0,1.49.65,1.49,1.68,0,1.46-.55,2-4.49,2.09l-.65,0a6.09,6.09,0,0,0-.07,1c0,1.42,0,3.58,3.41,3.58,2.57,0,4.32-1.32,4.32-3.29a4.3,4.3,0,0,0-.82-2.45,2,2,0,0,1-.29-.94A2,2,0,0,1,107.17,11c.94,0,1.42.46,2,2a8.73,8.73,0,0,1,.67,3.34c0,4.06-3.19,6.58-8.33,6.58-2.42,0-4-.5-5.21-1.73a5.91,5.91,0,0,1-1.63-4.34c0-.46.05-1.15.1-2a12.57,12.57,0,0,1-4-.38A1.63,1.63,0,0,1,90,13a1.59,1.59,0,0,1,1.7-1.8c.53,0,3,.17,3.46.17.1-.91.22-1.75.31-2.69-3.84,0-4.68-.19-4.68-1.82A1.63,1.63,0,0,1,92.58,5c.5,0,2.76.14,3.24.14.05-.7.07-1.51.12-2.28.07-1.44.62-2,1.94-2a1.68,1.68,0,0,1,2,1.8,16.65,16.65,0,0,1-.22,2.4C100.5,5,101.44,4.88,102.16,4.88Z"/><path class="cls-2" d="M113.92,8.62a43.46,43.46,0,0,1,8.81-1.3c4.3,0,6.84,2.3,6.84,6.19a7.33,7.33,0,0,1-3.7,6.41A16.29,16.29,0,0,1,119,21.86a1.8,1.8,0,0,1-1.9-2c0-1.42.82-1.51,3-1.8,3.7-.46,5.83-2.16,5.83-4.63,0-1.8-1.13-2.81-3.19-2.81a30.46,30.46,0,0,0-7.87,1.51,5.19,5.19,0,0,1-1.46.29c-.89,0-1.54-.79-1.54-1.9S112.33,9.05,113.92,8.62Z"/><path class="cls-2" d="M135.23,2.6A2,2,0,0,1,137.41.85a1.55,1.55,0,0,1,1.78,1.42,45.39,45.39,0,0,0,1.75,5.9c1.22-.62,5.23-2.47,6.5-2.47a2,2,0,0,1,1.75,2.18c0,1.2-.36,1.34-3.48,2.38a37.94,37.94,0,0,0-6.77,3.24c-1.49,1-2.09,1.87-2.09,3,0,1.61,1.13,2.18,4.22,2.18a37.53,37.53,0,0,0,4.8-.34,14.55,14.55,0,0,1,2-.26,1.78,1.78,0,0,1,1.68,2A1.8,1.8,0,0,1,148,22a42.09,42.09,0,0,1-6,.41,20.2,20.2,0,0,1-4.78-.41A5.13,5.13,0,0,1,133,16.73c0-2.35,1-4,3.46-5.88A9.08,9.08,0,0,1,137.6,10C136.91,8.5,135.23,3.82,135.23,2.6Z"/><path class="cls-2" d="M157.36,5.24a17.13,17.13,0,0,1-2.09,2.54,2.14,2.14,0,0,1-1.61.77,1.78,1.78,0,0,1-1.75-1.68c0-.62.12-.74,1.37-1.94A14.3,14.3,0,0,0,155.42,2c.6-1.22.91-1.51,1.75-1.51,1.18,0,1.94.53,1.94,1.34a2.2,2.2,0,0,1-.05.38h12.75c.77,0,1.22.55,1.22,1.54s-.46,1.51-1.22,1.51Zm3.74,9.17c1.27-1.51,1.34-1.56,2-1.56a1.89,1.89,0,0,1,2,1.56c0,.86-.62,1.49-1.78,2.64a25.8,25.8,0,0,1,2.38,1.75,1.82,1.82,0,0,1,.74,1.32,2.15,2.15,0,0,1-1.75,2.09c-.53,0-.94-.22-1.7-.86-1.27-1.08-1.82-1.51-2.47-2-1.18.84-4.92,3.17-6.55,3.17a1.78,1.78,0,0,1-1.54-1.92c0-.91.38-1.25,2-1.82a15.29,15.29,0,0,0,3.1-1.44,18.62,18.62,0,0,0-1.8-1c-.89-.43-1.18-.77-1.18-1.37a2.11,2.11,0,0,1,1.8-1.85c.89,0,3.19,1.42,4.08,2C160.81,14.72,161,14.53,161.1,14.41Zm9.32-1.9c0,4.9,1,6.12,1.18,6.12s.17-.05.19-.17.24-.86.29-1c.12-.36.5-.55,1-.55.94,0,1.51.48,1.51,1.22,0,.48-.46,4.85-3.17,4.85s-3.77-4.1-4.15-6.55c-.17-1.08-.24-2.18-.36-3.48-.05-.46-.14-.5-.82-.5H154c-.77,0-1.2-.55-1.2-1.51s.41-1.51,1.2-1.51h13.61c2.06,0,2.86.58,2.86,2.06v1ZM157.89,8.62c-.67,0-1.06-.48-1.06-1.32S157.21,6,157.89,6H170.3c.7,0,1.08.48,1.08,1.34S171,8.62,170.3,8.62Z"/><path class="cls-2" d="M179.44,2.64c0-1.08,0-1.92,1.56-1.92s1.56.82,1.56,1.92h2.11c.77,0,1.2.53,1.2,1.51s-.43,1.49-1.2,1.49h-2.11v.82h1.2c1.61,0,2,.41,2,2v5.69c0,1.61-.41,2-2,2h-1.2v.89h2.21c.77,0,1.22.55,1.22,1.54s-.46,1.54-1.22,1.54h-2.21V22c0,.79-.55,1.25-1.56,1.25s-1.56-.46-1.56-1.25V20.16h-2.69c-.79,0-1.25-.55-1.25-1.54s.46-1.54,1.25-1.54h2.69v-.89h-1.22c-1.61,0-2-.41-2-2V8.48c0-1.61.41-2,2-2h1.22V5.64h-2.52c-.77,0-1.2-.55-1.2-1.49s.43-1.51,1.2-1.51Zm.21,7.49V8.86c-.67,0-.74,0-.74.38v.89Zm0,2.26h-.74v.91c0,.38.07.38.74.38Zm2.67-2.26h.77V9.24c0-.38-.07-.38-.77-.38Zm0,2.26v1.3c.7,0,.77,0,.77-.38V12.4h-.77Zm7.87,1.46V13c0-.84.6-1.34,1.66-1.34s1.68.48,1.68,1.34v.84h2.66c.77,0,1.2.55,1.2,1.51s-.43,1.49-1.2,1.49h-2.66v2.47h3.36c.82,0,1.25.55,1.25,1.56s-.43,1.56-1.25,1.56h-9.72c-.79,0-1.25-.55-1.25-1.56s.46-1.56,1.25-1.56h3V16.85h-2.5c-.77,0-1.2-.55-1.2-1.51s.46-1.49,1.2-1.49Zm5.26-12.43c1.25,0,1.94.55,1.94,1.51,0,1.66-1.56,3.7-3.14,5.47a17.81,17.81,0,0,0,2.93,1.3c.74.26,1,.6,1,1.15a1.87,1.87,0,0,1-1.54,2c-1.32,0-4-1.54-4.87-2.28-1.94,1.39-3.53,2.23-4.27,2.23A1.82,1.82,0,0,1,186,10.85c0-.62.22-.91,1-1.22a15.33,15.33,0,0,0,2.52-1.32,11.88,11.88,0,0,1-2.18-3.94c-.74,0-1.13-.55-1.13-1.46s.43-1.49,1.18-1.49Zm-4.9,3a9.1,9.1,0,0,0,1.3,2,8.81,8.81,0,0,0,1.39-1.92c0-.07-.05-.1-.19-.1Z"/><path class="cls-2" d="M206,3.24a14.36,14.36,0,0,1-.24,1.54,46.63,46.63,0,0,0-.84,8.67,36.67,36.67,0,0,0,.38,5.64,8.77,8.77,0,0,1,.17,1.58c0,1-.89,1.63-2.18,1.63-1.75,0-2-1.25-2.18-4.7-.07-1.08-.1-2.09-.1-3.38a54.36,54.36,0,0,1,.41-6.94c.53-4.82.79-5.45,2.4-5.45C205.05,1.83,206,2.45,206,3.24Zm5.88,11a1.82,1.82,0,0,1-.22.94,2.44,2.44,0,0,0-.24,1c0,1.13,1.13,1.54,4.25,1.54a19.18,19.18,0,0,0,3.26-.26,6,6,0,0,1,1.13-.12c1,0,1.58.72,1.58,1.87,0,1.73-.86,2.28-5.95,2.28-2.76,0-8-.26-8-5.09a6.07,6.07,0,0,1,.67-2.81,1.6,1.6,0,0,1,1.51-.86C211.1,12.77,211.91,13.4,211.91,14.26Zm8.81-8.85c0,1.2-.5,1.82-1.42,1.82-.17,0-.43,0-.67,0a15,15,0,0,0-2.21-.12,38.75,38.75,0,0,0-5.33.31,5.59,5.59,0,0,1-1,.1c-.94,0-1.49-.67-1.49-1.78,0-1.9,1.1-2,3.24-2.16,1.54-.12,2.9-.17,4.34-.17C220,3.39,220.72,3.72,220.72,5.41Z"/><path class="cls-2" d="M230.06,3.92c1.37,0,1.9.46,1.9,1.61a10.33,10.33,0,0,1-2,5.11,6.75,6.75,0,0,1,1,.7c1.08.84,1.32,1.15,1.32,1.8a1.83,1.83,0,0,1-1.75,1.75,1.19,1.19,0,0,1-1-.55,2.15,2.15,0,0,0-.24-.29v7.87c0,.86-.6,1.37-1.7,1.37s-1.7-.48-1.7-1.37V15.75a1.59,1.59,0,0,1-1.13.46,1.89,1.89,0,0,1-1.87-2c0-.67.07-.79,1.22-1.75,2.28-1.9,4.06-4.82,4.06-5.28,0-.12-.14-.14-.26-.14h-3.62c-.82,0-1.27-.55-1.27-1.58s.46-1.56,1.27-1.56h1.61V2c0-.86.6-1.34,1.73-1.34s1.7.48,1.7,1.34V3.93h.75Zm7.58,11.23c-.43,3.07-1,4.42-2.54,6-1.2,1.32-2.28,1.94-3.1,1.94a1.74,1.74,0,0,1-1.63-1.8,1.48,1.48,0,0,1,.79-1.32c1.78-1.15,2.78-1.9,3.22-4.87-.6,0-1.73-.22-1.73-2.11V3.68c0-1.73.5-2.23,2.23-2.23h7.39c1.73,0,2.23.5,2.23,2.23v9.24c0,2.16-.84,2.23-2.74,2.23v4.18c0,.46.07.53.46.53s.48-.14.53-1,.34-1.22,1.22-1.22c1.18,0,1.7.43,1.7,1.34a6.22,6.22,0,0,1-.6,2.69c-.48.79-1.37,1.06-3.53,1.06-2.59,0-3.07-.43-3.07-2.9v-4.7h-.83Zm3.58-9.67c0-1,0-1.13-.53-1.13h-4.22c-.53,0-.53.12-.53,1.13Zm0,2.3h-5.28V9h5.28Zm-.53,4.71c.53,0,.53-.1.53-1.15h-5.28c0,1.06,0,1.15.53,1.15Z"/><path class="cls-2" d="M255.81,1.56c.72,0,1.1.41,1.2,1.2a1.32,1.32,0,0,1,.6-.14H261c0-1.08,0-2,1.61-2s1.63.89,1.63,2h4.06c.74,0,1.15.53,1.15,1.46s-.41,1.44-1.15,1.44h-4.06v1h2.62c1.58,0,2,.43,2,2v2.86c0,1.58-.43,2-2,2h-8.21c-1.58,0-2-.43-2-2V8.57c0-1.58.43-2,2-2H261v-1h-3.38c-.62,0-1-.34-1.13-1.1a1.16,1.16,0,0,1-.72.19V19.9c.19-.89.55-2.21.67-3,.14-1,.41-1.34,1-1.34,1,0,1.49.36,1.49,1a28.83,28.83,0,0,1-.86,4.37.86.86,0,0,1-.94.7,1.7,1.7,0,0,1-1.39-.67v1c0,.82-.55,1.25-1.56,1.25s-1.56-.43-1.56-1.25V18.69a30.19,30.19,0,0,1-4.44,1.06c-.82,0-1.37-.74-1.37-1.9A1.17,1.17,0,0,1,248,16.51V4.64c-.82,0-1.22-.55-1.22-1.54s.46-1.54,1.22-1.54Zm-3.17,3.05H251V6.53h1.61Zm0,4.44H251v2h1.61Zm0,4.54H251v2.35c.53-.12,1.1-.26,1.61-.41Zm6.55-3c0,.38.1.38.91.38V9c-.82,0-.91,0-.91.38Zm0,5c0-.74.55-1.2,1.46-1.2a1.58,1.58,0,0,1,1.27.43,1.69,1.69,0,0,1,1.51-1.1c1.1,0,1.9,2.35,1.9,2.67a1.65,1.65,0,0,1-1.54,1.34c-.48,0-.67-.22-1-1a11,11,0,0,0-.58-1v3.67c0,.58.1.65.67.65.84,0,.94-.05,1-.6s.43-1,1.25-1,1.46.38,1.46,1.15c0,2.38-.84,3.14-3.41,3.14-3.19,0-4-.41-4-2.11v-5ZM262.12,9v2h1V9Zm4,.39c0-.38-.1-.38-1-.38v2c.89,0,1,0,1-.38Zm3.36,8.9a4.64,4.64,0,0,1,.26,1.3c0,.67-.72,1.2-1.66,1.2-.62,0-.84-.22-1-1s-.62-2-1-2.95a2.13,2.13,0,0,1-.19-.72c0-.58.79-1.15,1.58-1.15S268.5,15.17,269.44,18.27Z"/><path class="cls-2" d="M275.7,14.74A1.52,1.52,0,0,1,274,16.16c-1.08,0-1.75-.53-1.8-1.42l-.43-10.11c0-.36,0-2,2.18-2,1.44,0,2.26.74,2.21,2Zm.46,4.47a2.21,2.21,0,1,1-4.42,0,2.21,2.21,0,0,1,4.42,0Z"/></g><g class="cls-1"><path class="cls-2" d="M10.27,52.7c.62,0,.87.35.87.78,0,1.25-1.58,4.1-5.46,4.69a7.25,7.25,0,0,1-1.12,3c-.67,1-2.13,2.46-2.8,2.46a.7.7,0,0,1-.66-.69.63.63,0,0,1,.34-.52c3-2,3.07-4.22,3.1-6.47a.57.57,0,0,1,.63-.62.6.6,0,0,1,.69.67,6.47,6.47,0,0,1,0,.83c3-.56,3.81-2.45,3.81-2.76,0-.07-.06-.13-.18-.13H.63a.63.63,0,1,1,0-1.26h9.64Z"/><path class="cls-2" d="M22.42,53.12a1.47,1.47,0,0,1,.41,0,1.61,1.61,0,0,1-.13-.64,1.68,1.68,0,0,1,1.67-1.68,1.68,1.68,0,0,1,0,3.36,1.36,1.36,0,0,1-.71-.17,11.49,11.49,0,0,1-3,6.25,9.36,9.36,0,0,1-4.94,3.12.69.69,0,0,1-.69-.7c0-.36.21-.55.57-.67a9.07,9.07,0,0,0,3.53-2.09,10.09,10.09,0,0,0,3.05-5.37c0-.13,0-.17-.2-.17H13.69a.57.57,0,0,1-.64-.63.58.58,0,0,1,.64-.64Zm1.1-.62a.82.82,0,0,0,.84.85.85.85,0,0,0,0-1.7A.82.82,0,0,0,23.52,52.5Z"/><path class="cls-2" d="M28,52.46a.66.66,0,1,1,1.32,0v6a.66.66,0,0,1-1.32,0Zm6.37,0a.58.58,0,0,1,.64-.64.59.59,0,0,1,.66.64v3.77c0,2.59-.1,4.19-1.79,5.71A7.68,7.68,0,0,1,30,63.78a.66.66,0,0,1-.66-.69c0-.35.15-.52.59-.62a7.62,7.62,0,0,0,2.44-.94c2-1.25,2.07-3,2.07-5.24V52.48Z"/><path class="cls-2" d="M45.6,53a4.35,4.35,0,0,1,.8-.1.54.54,0,0,1,.59.56c0,.49-.13.63-2.41.87-.49.06-1,.1-1.57.13a15.09,15.09,0,0,1-1,2A2.62,2.62,0,0,1,43.42,56a1.77,1.77,0,0,1,1.86,1.81,35.49,35.49,0,0,1,3.64-1.32.67.67,0,0,1,.62.69c0,.41-.29.5-.8.67-1.63.52-2.28.77-3.33,1.19,0,.41,0,.81,0,1.22,0,.56,0,1.16-.64,1.16-.35,0-.56-.2-.56-.66,0-.18,0-1,0-1.18-.74.41-2,1.11-2,2s.83.91,2.61.91c.62,0,1,0,1.48-.07s.88-.11,1.09-.11a.54.54,0,0,1,.59.57c0,.56-.21.81-2.84.81-1.53,0-4.2,0-4.2-2a2.47,2.47,0,0,1,1.08-2,10.83,10.83,0,0,1,2.16-1.36c0-.41-.1-1.22-1-1.22a3.86,3.86,0,0,0-2.37,1.23c-.35.35-.57.69-.94,1.12s-.41.39-.6.39a.64.64,0,0,1-.64-.6c0-.27.13-.45.43-.77a16.2,16.2,0,0,0,2.66-4H40.56c-1.11,0-1.6,0-1.6-.62a.57.57,0,0,1,.62-.6l2.06,0h.52a11.77,11.77,0,0,0,.42-1.42.53.53,0,0,1,.56-.48c.41,0,.66.2.66.53a4.71,4.71,0,0,1-.35,1.29A20.73,20.73,0,0,0,45.6,53Z"/><path class="cls-2" d="M54.91,54.7a14.17,14.17,0,0,1-3,3.42,1.34,1.34,0,0,1-.78.38.68.68,0,0,1-.64-.67c0-.25.11-.36.48-.63a12,12,0,0,0,2.34-2.35A10.78,10.78,0,0,0,54.74,52c.17-.49.45-.53.66-.53a.68.68,0,0,1,.73.6,4.85,4.85,0,0,1-.55,1.49h4.31c.6,0,.92.35.92.74a11.72,11.72,0,0,1-2.62,6,11.56,11.56,0,0,1-6,3.84.68.68,0,0,1-.62-.7c0-.31.14-.45.5-.59a11.28,11.28,0,0,0,5-3.25,18.87,18.87,0,0,0-1.6-1.06c-.38-.24-.87-.49-1.15-.66a.65.65,0,0,1-.39-.56.64.64,0,0,1,.59-.66,16.93,16.93,0,0,1,3.32,1.88,9.79,9.79,0,0,0,1.48-3.56c0-.14-.07-.2-.24-.2H54.91Zm6.23-2.13a1,1,0,0,1,.18.5.53.53,0,0,1-.48.48c-.25,0-.32-.1-.48-.35s-.35-.53-.56-.83-.28-.38-.28-.55a.49.49,0,0,1,.5-.49C60.37,51.34,60.76,52,61.14,52.57Zm1-1.42a3.5,3.5,0,0,1,.84,1.4.49.49,0,0,1-.5.46c-.22,0-.31-.1-.49-.38s-.35-.53-.55-.78-.32-.42-.32-.59a.46.46,0,0,1,.5-.46C61.77,50.8,61.88,50.9,62.09,51.15Z"/><path class="cls-2" d="M70.34,53.84h3.6a.83.83,0,0,1,.91.88,11.21,11.21,0,0,1-2.79,6.64A8.29,8.29,0,0,1,68.5,63.7a.66.66,0,0,1-.59-.71c0-.34.21-.46.76-.73a8.31,8.31,0,0,0,4.78-6.92c0-.15-.08-.22-.28-.22H66c-.21,0-.29.08-.29.29v2.31a.6.6,0,1,1-1.2,0V54.89a.93.93,0,0,1,1-1h3.54V52.31a.58.58,0,0,1,.64-.64.59.59,0,0,1,.66.64v1.53Z"/><path class="cls-2" d="M79.14,53.16c2.35,1.64,2.37,1.88,2.37,2.13a.77.77,0,0,1-.73.76c-.27,0-.42-.13-.84-.49s-1.34-1.08-1.83-1.43c-.32-.22-.64-.38-.64-.73a.71.71,0,0,1,.67-.71C78.45,52.68,78.69,52.83,79.14,53.16Zm9.37,2.71c0,.39-.45,1-1,1.65a19,19,0,0,1-9.27,5.87c-.41,0-.67-.31-.67-.8,0-.27.14-.52.66-.67a18.94,18.94,0,0,0,4.69-2.17,13.29,13.29,0,0,0,4-3.75c.13-.17.21-.34.32-.49a.63.63,0,0,1,.55-.34A.79.79,0,0,1,88.51,55.87Z"/><path class="cls-2" d="M99.68,52.89A1,1,0,0,1,100.84,54v7.48a1,1,0,0,1-1.16,1.15H92.14A1,1,0,0,1,91,61.52V54a1,1,0,0,1,1.16-1.15Zm-.15,1.47c0-.18-.06-.24-.22-.24H92.49c-.17,0-.22.06-.22.24v6.82c0,.18.06.24.22.24h6.82c.17,0,.22-.06.22-.24Z"/><path class="cls-2" d="M104.09,58.42a.68.68,0,1,1,0-1.36H115a.68.68,0,1,1,0,1.36Z"/><path class="cls-2" d="M119.35,55.37a26.53,26.53,0,0,1,4.47,2.21c.42.27.62.46.62.78a.74.74,0,0,1-.64.76c-.27,0-.49-.21-.84-.42a24.87,24.87,0,0,0-3.6-1.92v6.53a.64.64,0,0,1-1.28,0V52.24a.64.64,0,1,1,1.28,0v3.13Zm4-1.39a1.33,1.33,0,0,1,.25.57.54.54,0,0,1-.53.5c-.18,0-.31-.1-.46-.36a10.29,10.29,0,0,0-.62-.88,1,1,0,0,1-.27-.55.52.52,0,0,1,.53-.49C122.52,52.78,122.74,53,123.37,54Zm1.49-.74a1.14,1.14,0,0,1,.22.53.54.54,0,0,1-.55.52c-.22,0-.35-.2-.48-.39s-.39-.59-.57-.84-.28-.35-.28-.56a.49.49,0,0,1,.5-.46C123.93,52,124.1,52.12,124.86,53.24Z"/><path class="cls-2" d="M133.48,53.14l1.74,0a9,9,0,0,1,2.17.18.58.58,0,0,1,.29.52.57.57,0,0,1-.6.62c-.25,0-.56,0-1-.06s-1-.06-1.53-.06-.81,0-1.12,0c0,1.88,0,2.09-.06,2.86a4.91,4.91,0,0,1,.31,1.7,5.87,5.87,0,0,1-3.78,5.29.63.63,0,0,1-.6-.62.59.59,0,0,1,.34-.53,5.45,5.45,0,0,0,2.06-1.67,3.1,3.1,0,0,0,.57-1,1.88,1.88,0,0,1-1.39.55,2.57,2.57,0,0,1,.12-5.13,2.41,2.41,0,0,1,1.23.31c0-.52,0-1.11,0-1.67-1.61.1-3.36.22-5.11.48-.34,0-.63.1-.84.1a.61.61,0,0,1-.59-.67c0-.52.31-.56,1.06-.64,1.39-.17,3.64-.36,5.46-.46,0-.45,0-.94,0-1.3a.56.56,0,0,1,.6-.59c.62,0,.66.43.66.84v1Zm-3.71,5.13A1.31,1.31,0,0,0,131,59.66a1.2,1.2,0,0,0,1.18-.64,3.13,3.13,0,0,0,.08-.91c0-.6,0-.66-.22-.88a1.47,1.47,0,0,0-1-.35A1.28,1.28,0,0,0,129.77,58.27Z"/><path class="cls-2" d="M143.18,63.24c0,.49-.21.74-.64.74s-.62-.22-.62-.66c0-.71.1-3.63.11-4-.2.24-.49.6-.73.95s-.66,1-1,1.39-.45.62-.77.62a.63.63,0,0,1-.62-.57c0-.22.1-.38.36-.73a26.93,26.93,0,0,0,1.91-2.75,11.86,11.86,0,0,0,.91-1.76c0-.24,0-.49,0-.69a14.31,14.31,0,0,1-2.41.55.57.57,0,0,1-.55-.64c0-.29.14-.5.55-.59a16.54,16.54,0,0,0,2.41-.56,12.58,12.58,0,0,1,.11-2.42.54.54,0,0,1,.56-.46c.45,0,.69.27.69.57s-.13,1.72-.14,2a.66.66,0,0,1,.53.63,1.26,1.26,0,0,1-.27.7c-.46.8-.48.81-.43,1,1.69-1.39,3.31-2.66,4.45-2.66a1.64,1.64,0,0,1,1.67,1.67c0,.32-.07,1.08-.14,1.67,0,0-.35,2.72-.35,3.88,0,.21,0,.69.41.69s1.23-.7,1.6-1.16c.15-.18.25-.31.5-.31A.67.67,0,0,1,152,61c0,.6-1.64,2.16-2.93,2.16-1.47,0-1.47-1.47-1.47-1.89a27.92,27.92,0,0,1,.31-3.53c.08-.67.2-1.53.2-1.83,0-.14,0-.81-.56-.81-.85,0-3.54,2.16-4.31,2.94C143.18,59.24,143.18,62.26,143.18,63.24Z"/><path class="cls-2" d="M155.57,52.5a4.53,4.53,0,0,1-.13.85A47.21,47.21,0,0,0,155,59.2c0,1.09,0,1.58.08,2.26s.18,1,.18,1.25c0,.43-.34.59-.69.59-.53,0-.63-.34-.74-2.13,0-.62-.06-1.15-.06-1.63a61.63,61.63,0,0,1,.45-6.61c.07-.59.14-1,.73-1A.6.6,0,0,1,155.57,52.5Zm5.74.7c0-.73,0-1.21.64-1.21a.59.59,0,0,1,.63.64c0,.29,0,1.54-.06,1.81.48-.07.8-.13,1.19-.21a4.61,4.61,0,0,1,.85-.15.57.57,0,0,1,.52.64c0,.38,0,.64-2.59.91,0,.27,0,.78,0,1s0,1,0,1.41.07,1.34.08,1.78a12.75,12.75,0,0,1,1.74,1c.55.38.67.53.67.81a.63.63,0,0,1-.62.66c-.2,0-.25,0-.7-.38a10.35,10.35,0,0,0-1.09-.73,1.9,1.9,0,0,1-.88,1.6,3.49,3.49,0,0,1-2.09.55c-1.46,0-2.8-.59-2.8-2,0-.87.66-2.06,2.79-2.06a7.26,7.26,0,0,1,1.79.22c-.07-2.25-.08-2.79-.1-3.71-.27,0-1.26.08-2.1.08-1.43,0-2,0-2-.66a.56.56,0,0,1,.59-.6c.42,0,.85.07,1.69.07a15,15,0,0,0,1.78-.07V53.2Zm-1.72,7.18c-1,0-1.55.36-1.55.95s.63.9,1.54.9,1.74-.36,1.83-1c0-.14,0-.38,0-.46A4.89,4.89,0,0,0,159.59,60.38Zm4.13-8.46a4.2,4.2,0,0,1,.81,1.36.49.49,0,0,1-.49.46c-.2,0-.31-.1-.49-.39s-.36-.56-.5-.74-.27-.36-.27-.52a.49.49,0,0,1,.49-.45C163.44,51.64,163.54,51.7,163.72,51.92ZM165,51.1a3.88,3.88,0,0,1,.94,1.47.47.47,0,0,1-.5.45c-.17,0-.28-.07-.48-.38s-.48-.67-.7-1a.64.64,0,0,1-.2-.43.47.47,0,0,1,.49-.45C164.67,50.8,164.8,50.89,165,51.1Z"/><path class="cls-2" d="M168.5,53.79c0,.38,0,2,0,2.35,0,3.6.6,5.58,1.09,5.58.34,0,.9-.66,1.43-1.67.21-.39.39-.49.62-.49a.61.61,0,0,1,.64.59c0,.55-1.37,3-2.76,3-2.25,0-2.35-5.28-2.35-8.89,0-.9.1-1.26.71-1.26C168.29,53,168.5,53.2,168.5,53.79Zm6.94-.35c.43,0,.63.43.83.76a15,15,0,0,1,2,5.95.71.71,0,0,1-.74.83c-.53,0-.63-.41-.64-.73A12.17,12.17,0,0,0,175,54.76a1.61,1.61,0,0,1-.28-.7A.66.66,0,0,1,175.44,53.44Z"/><path class="cls-2" d="M191.86,57.09a4.78,4.78,0,0,1-2.79,4.33,12,12,0,0,1-4.38,1.16.67.67,0,0,1-.76-.67.64.64,0,0,1,.67-.7A9.14,9.14,0,0,0,189,59.92a3.42,3.42,0,0,0,1.57-2.84,2.59,2.59,0,0,0-2.94-2.66,25.89,25.89,0,0,0-6.08,1.15,3.51,3.51,0,0,1-.92.21.64.64,0,0,1-.59-.71c0-.52.17-.56,1.64-.92a28.06,28.06,0,0,1,6.07-1A3.82,3.82,0,0,1,191.86,57.09Z"/><path class="cls-2" d="M195.3,54.67a5.46,5.46,0,0,1-.78.11.58.58,0,0,1-.59-.62c0-.57.17-.69,2.37-.94s4.17-.48,6.26-.63c.73-.07,1.53-.13,2-.13s.78.21.78.66-.24.67-.92.67A4.47,4.47,0,0,0,201,55.42,5.13,5.13,0,0,0,199.38,59a2.53,2.53,0,0,0,.9,2.14,4.46,4.46,0,0,0,2.89.87c.46,0,.77.18.77.63s-.28.71-1,.71c-1.95,0-4.8-1.06-4.8-4.23a6.44,6.44,0,0,1,3-5.28C198.47,54.12,196.84,54.4,195.3,54.67Zm8.94,1.92a1,1,0,0,1,.24.53.54.54,0,0,1-.52.5c-.2,0-.35-.13-.5-.39a7.83,7.83,0,0,0-.67-1,.72.72,0,0,1-.18-.41.53.53,0,0,1,.5-.49C203.34,55.34,203.47,55.38,204.24,56.59Zm.81-1.72c.28.34.9,1.11.9,1.46a.52.52,0,0,1-.49.49c-.22,0-.31-.08-.48-.32s-.49-.71-.69-1a.72.72,0,0,1-.22-.48.5.5,0,0,1,.5-.46A.58.58,0,0,1,205.05,54.87Z"/><path class="cls-2" d="M213.52,54.18a.54.54,0,0,1,.55.6c0,.59-.39.62-1.5.7-.41,0-.76.06-1,.06-.07.77-.15,1.47-.22,2.24.66,0,1-.06,1.46-.1s.62-.07.74-.07a.56.56,0,0,1,.56.63c0,.59-.35.67-2.9.76a10.39,10.39,0,0,0-.08,1.23c0,1.88,1,2.34,2.28,2.34a2.87,2.87,0,0,0,2.59-1,2.11,2.11,0,0,0,.38-1.26,3.43,3.43,0,0,0-.5-1.82.77.77,0,0,1-.2-.49.61.61,0,0,1,.63-.59c.8,0,1.3,1.83,1.3,2.77,0,2-1.27,3.56-4.19,3.56-3.43,0-3.46-2.65-3.46-3.5A11.19,11.19,0,0,1,210,59c-.38,0-.84,0-1.22,0-1.16,0-1.68-.06-1.69-.73a.55.55,0,0,1,.6-.55c.11,0,.42,0,.73,0,.5,0,1.11.07,1.71.07.07-.69.17-1.54.24-2.24h-.49c-1.86,0-2.28-.06-2.28-.67a.6.6,0,0,1,.63-.64c.2,0,.53,0,1.09.07s.8,0,1.15,0c0-.46.07-1,.08-1.51,0-.87,0-1.29.67-1.29a.57.57,0,0,1,.63.64c0,.31-.18,2.12-.18,2.13C212,54.32,213.25,54.18,213.52,54.18Z"/><path class="cls-2" d="M227.41,54.4a.68.68,0,0,1,.64.73c0,.34-.21.49-.59.63-5.72,2.14-6.81,3.68-6.81,4.79,0,1.57,1.41,1.68,3.33,1.68a21.64,21.64,0,0,0,3.21-.29,4.83,4.83,0,0,1,.56-.07.61.61,0,0,1,.62.67c0,.6-.21.7-2.23.85-.84.07-1.58.11-2.44.11-2.31,0-3.26-.36-4-1.42a2.74,2.74,0,0,1-.36-1.43c0-1.6,1.08-2.75,2.89-3.87a38.22,38.22,0,0,1-1.4-4.57.68.68,0,0,1,.73-.64c.49,0,.55.21.91,1.6.25,1,.67,2.25.92,3A24.15,24.15,0,0,1,227.41,54.4Zm1-1.24a1,1,0,0,1,.21.53.54.54,0,0,1-.52.49c-.22,0-.35-.18-.5-.42s-.38-.59-.59-.87-.25-.36-.25-.52a.5.5,0,0,1,.52-.48C227.48,51.9,227.59,51.91,228.4,53.16Zm1.49-.77a1,1,0,0,1,.22.55.53.53,0,0,1-.52.5c-.22,0-.31-.11-.45-.32s-.48-.71-.71-1a.74.74,0,0,1-.2-.45.5.5,0,0,1,.5-.46C229,51.18,229.1,51.21,229.89,52.39Z"/><path class="cls-2" d="M232.9,59a1.65,1.65,0,0,1-.2.59,1.35,1.35,0,0,0-.13.56c0,.24,0,.8,1,1.12a9.16,9.16,0,0,0,2.58.31,15.84,15.84,0,0,0,3.42-.32,3.25,3.25,0,0,1,.64-.1.63.63,0,0,1,.62.69c0,.42-.06.76-2.33,1-.69.06-1.39.08-1.95.08-1.78,0-3.49-.15-4.47-.92a2.19,2.19,0,0,1-.85-1.65,3.59,3.59,0,0,1,.32-1.39.67.67,0,0,1,.66-.45A.62.62,0,0,1,232.9,59Zm6.34-6c.49,0,.8.22.8.71a.56.56,0,0,1-.63.63c-.42,0-.92-.07-1.55-.1s-1.05,0-1.69,0-1.29,0-2,.07-1.23.14-1.48.14a.56.56,0,0,1-.59-.6c0-.59,0-.9,4.4-.9C236.91,52.91,238.54,52.93,239.24,53Z"/><path class="cls-2" d="M244,54.67a5.46,5.46,0,0,1-.78.11.58.58,0,0,1-.59-.62c0-.57.17-.69,2.37-.94s4.17-.48,6.26-.63c.73-.07,1.53-.13,2-.13s.78.21.78.66-.24.67-.92.67a4.47,4.47,0,0,0-3.45,1.63A5.13,5.13,0,0,0,248.1,59a2.53,2.53,0,0,0,.9,2.14,4.46,4.46,0,0,0,2.89.87c.46,0,.77.18.77.63s-.28.71-1,.71c-1.95,0-4.8-1.06-4.8-4.23a6.44,6.44,0,0,1,3-5.28C247.19,54.12,245.56,54.4,244,54.67ZM253,56.59a1,1,0,0,1,.24.53.54.54,0,0,1-.52.5c-.2,0-.35-.13-.5-.39a7.83,7.83,0,0,0-.67-1,.72.72,0,0,1-.18-.41.53.53,0,0,1,.5-.49C252.06,55.34,252.19,55.38,253,56.59Zm.81-1.72c.28.34.9,1.11.9,1.46a.52.52,0,0,1-.49.49c-.22,0-.31-.08-.48-.32s-.49-.71-.69-1a.72.72,0,0,1-.22-.48.5.5,0,0,1,.5-.46A.58.58,0,0,1,253.77,54.87Z"/><path class="cls-2" d="M262.24,54.18a.54.54,0,0,1,.55.6c0,.59-.39.62-1.5.7-.41,0-.76.06-1,.06-.07.77-.15,1.47-.22,2.24.66,0,1-.06,1.46-.1s.62-.07.74-.07a.56.56,0,0,1,.56.63c0,.59-.35.67-2.9.76a10.39,10.39,0,0,0-.08,1.23c0,1.88,1,2.34,2.28,2.34a2.87,2.87,0,0,0,2.59-1,2.11,2.11,0,0,0,.38-1.26,3.43,3.43,0,0,0-.5-1.82.77.77,0,0,1-.2-.49.61.61,0,0,1,.63-.59c.8,0,1.3,1.83,1.3,2.77,0,2-1.27,3.56-4.19,3.56-3.43,0-3.46-2.65-3.46-3.5a11.19,11.19,0,0,1,.08-1.25c-.38,0-.84,0-1.22,0-1.16,0-1.68-.06-1.69-.73a.55.55,0,0,1,.6-.55c.11,0,.42,0,.73,0,.5,0,1.11.07,1.71.07.07-.69.17-1.54.24-2.24h-.49c-1.86,0-2.28-.06-2.28-.67a.6.6,0,0,1,.63-.64c.2,0,.53,0,1.09.07s.8,0,1.15,0c0-.46.07-1,.08-1.51,0-.87,0-1.29.67-1.29a.57.57,0,0,1,.63.64c0,.31-.18,2.12-.18,2.13C260.68,54.32,262,54.18,262.24,54.18Z"/><path class="cls-2" d="M277.44,58.19a12.1,12.1,0,0,0,.13-1.27,3.76,3.76,0,0,1,.08-.85.63.63,0,0,1,.6-.34c.43,0,.64.22.64.7a16.66,16.66,0,0,1-.24,2.21c1.92.81,2.09,1,2.09,1.36a.69.69,0,0,1-.64.74,1.12,1.12,0,0,1-.57-.25c-.41-.24-.77-.42-1.18-.62a8.7,8.7,0,0,1-2,3.6c-.27.28-.42.38-.67.38a.74.74,0,0,1-.7-.66c0-.21.08-.34.35-.59a7.26,7.26,0,0,0,1.89-3.19,14,14,0,0,0-3.56-.9c-1.4,3.21-2.44,4.37-3.78,4.37-1.11,0-1.65-1-1.65-2.07,0-1.58,1.47-3.57,4.69-3.52.25-.63.5-1.22.73-1.78a14.47,14.47,0,0,0,.7-1.82c0-.08,0-.13-.15-.13-.29,0-3.19.34-3.4.34a.61.61,0,0,1-.67-.67c0-.45.29-.59.64-.6.67-.06,3.92-.34,4.23-.34.59,0,.9.34.9.71,0,.2-.06.32-.56,1.54-.29.7-.83,1.91-1.23,2.86A16.33,16.33,0,0,1,277.44,58.19Zm-8.07,2.57c0,.21.07.85.59.85s.8-.2,1.46-1.28c.22-.38.7-1.27,1-1.9C270.45,58.48,269.37,59.67,269.37,60.76Z"/><path class="cls-2" d="M287.63,57.4c1.37,0,1.61,1.32,1.74,2.49.14,1.47.42,2.3,1.34,2.3s1.71-.57,2.52-2.51c.14-.32.28-.48.62-.48a.63.63,0,0,1,.64.62,6,6,0,0,1-1.41,2.52,3.3,3.3,0,0,1-2.45,1.13c-.73,0-2.12-.25-2.4-2.75A10.5,10.5,0,0,0,288,59c-.1-.35-.27-.42-.45-.42-.8,0-2.91,2.09-4,4.48-.2.41-.32.6-.62.6a.69.69,0,0,1-.73-.59c0-.8,4.16-9.5,4.92-11.09.17-.34.31-.48.62-.48a.68.68,0,0,1,.74.62,1.51,1.51,0,0,1-.28.71c-.9,1.6-2.79,5.58-3.11,6.25C285.74,58.34,286.61,57.4,287.63,57.4Z"/><path class="cls-2" d="M302.28,53.45a.54.54,0,0,1,.57.6c0,.66-.38.71-2.87,1a39.47,39.47,0,0,1-2,4.92c-.69,1.4-.81,1.51-1.19,1.51a.7.7,0,0,1-.73-.6.89.89,0,0,1,.2-.53,24.94,24.94,0,0,0,2.38-5.23c-.42,0-.8,0-1.26,0-.76,0-1.26,0-1.26-.66,0-.46.21-.62.6-.62h1.06a11.29,11.29,0,0,0,1.18,0,14.4,14.4,0,0,0,.43-1.81.55.55,0,0,1,.59-.49c.41,0,.69.2.69.52a9,9,0,0,1-.36,1.68C300.64,53.7,302.22,53.45,302.28,53.45Zm5,8a.68.68,0,0,1,.27.52.65.65,0,0,1-.59.67.6.6,0,0,1-.41-.14,10.05,10.05,0,0,0-1.61-1.05,2.27,2.27,0,0,1-.38,1.43,2.38,2.38,0,0,1-2.07.83c-1.91,0-3-.79-3-2s1.13-2.07,2.7-2.07a6.28,6.28,0,0,1,1.48.17c0-.46-.08-2.62-.08-2.93a.56.56,0,0,1,.62-.62c.66,0,.66.41.66,1.29s0,1.75,0,2.59A7.61,7.61,0,0,1,307.23,61.41Zm-5.12-.72c-.84,0-1.44.35-1.44.91s.63.94,1.64.94c1.39,0,1.4-.71,1.4-1.58A5.21,5.21,0,0,0,302.11,60.69Zm5.52-5.61c.31.25.41.38.41.63a.76.76,0,0,1-.66.79c-.2,0-.27-.07-.64-.38a11.71,11.71,0,0,0-2.1-1.43.54.54,0,0,1-.36-.49.72.72,0,0,1,.66-.7A8.09,8.09,0,0,1,307.63,55.08Z"/><path class="cls-2" d="M317.29,54.4a.68.68,0,0,1,.64.74c0,.32-.18.46-.5.59-2.63,1-5.28,2.24-6.28,3.39a2,2,0,0,0-.63,1.47c0,1.6,1.65,1.64,3.32,1.64a20.78,20.78,0,0,0,3-.25c.32,0,.62-.1.84-.1a.61.61,0,0,1,.59.69.69.69,0,0,1-.66.67,25.75,25.75,0,0,1-3.92.28c-2.2,0-3.4-.31-4.08-1.48a2.77,2.77,0,0,1-.35-1.36c0-1.32.71-2.52,2.9-3.88a30.18,30.18,0,0,1-1.4-4.57.68.68,0,0,1,.71-.64c.49,0,.57.22.92,1.65.27,1,.56,1.86.91,2.9A29.51,29.51,0,0,1,317.29,54.4Z"/><path class="cls-2" d="M323.7,53.83h2.49a.49.49,0,1,1,0,1H323.7v.67h1.6a.9.9,0,0,1,1,1V59a.89.89,0,0,1-1,1h-1.6v.7h2a.48.48,0,0,1,0,1h-2v.84c.32,0,2-.25,2-.25a.49.49,0,0,1,.48.5.46.46,0,0,1-.42.5c-.42.1-4.57.6-5.8.6a.52.52,0,0,1-.57-.57c0-.41.34-.48.64-.49,1,0,1.89-.11,2.63-.18v-.95h-2.19a.48.48,0,1,1,0-1h2.19V60h-1.57a.89.89,0,0,1-1-1V56.49a.9.9,0,0,1,1-1h1.57v-.67H320a.49.49,0,0,1,0-1h2.7V53c-.52,0-1.25.08-1.93.08-.49,0-.73-.13-.73-.58a.45.45,0,0,1,.48-.46,26.93,26.93,0,0,0,4.78-.39,4.19,4.19,0,0,1,.67-.1c.27,0,.46.21.46.55s-.18.46-.73.56c-.71.14-1.43.2-2,.27Zm-1,2.65h-1.3a.19.19,0,0,0-.22.22v.63h1.53v-.85Zm-1.52,1.72v.62a.19.19,0,0,0,.22.22h1.3V58.2Zm2.55-1.72v.85h1.54V56.7a.19.19,0,0,0-.22-.22Zm0,1.72V59H325a.19.19,0,0,0,.22-.22V58.2Zm4.38-3.57c0-.46,0-1.25,0-2.68,0-.42.2-.59.56-.59a.56.56,0,0,1,.63.59c0,1.28,0,1.91-.06,2.68h1.67c.77,0,1,.29,1,1v.46a38.72,38.72,0,0,1-.55,6.79,1.3,1.3,0,0,1-1.48,1.16c-1,0-1.42-.13-1.42-.64,0-.34.18-.59.45-.59s.43.08.84.08.46-.1.59-.71a36.88,36.88,0,0,0,.43-6.22c0-.21-.08-.29-.29-.29h-1.32c-.13,3.39-.62,6.16-2.13,8.05-.27.32-.42.43-.63.43a.61.61,0,0,1-.62-.56c0-.17.06-.27.25-.5,1.88-2.24,2-6.39,2-7.42h-.88a.48.48,0,0,1-.53-.55.5.5,0,0,1,.55-.55h.89Z"/><path class="cls-2" d="M333.87,56A.57.57,0,0,1,335,56v6.25c0,.25.08.34.34.34h9c.27,0,.35-.08.35-.34V56a.56.56,0,1,1,1.11,0v6.67a1,1,0,0,1-1.09,1.09H335a1,1,0,0,1-1.09-1.09V56Zm9.47,4.39a.91.91,0,0,1-1,1h-4.94a.91.91,0,0,1-1-1V55.61a.91.91,0,0,1,1-1h1.91V52.94h-4.71a.56.56,0,0,1,0-1.12h10.66a.56.56,0,1,1,0,1.12h-4.93v1.63h2a.91.91,0,0,1,1,1v4.82Zm-4.08-4.79h-1.71c-.15,0-.22.06-.22.21v1.58h1.93Zm-1.93,2.8v1.78c0,.14.07.21.22.21h1.71v-2Zm3-2.8v1.79h2V55.85c0-.15-.06-.21-.21-.21Zm0,2.8v2h1.78c.15,0,.21-.07.21-.21V58.44Z"/><path class="cls-2" d="M353.35,54.68c1.47,0,2.27,1,2.27,2.89a13.35,13.35,0,0,1-1,5,1.59,1.59,0,0,1-1.39,1,4.9,4.9,0,0,1-1.93-.56c-.28-.15-.43-.31-.43-.57a.65.65,0,0,1,.6-.7,1.77,1.77,0,0,1,.62.24,2.32,2.32,0,0,0,.88.29c.32,0,.46-.17.69-.73a12.09,12.09,0,0,0,.73-3.85c0-1.26-.34-1.86-1.19-1.86a12.47,12.47,0,0,0-1.51.14A34.52,34.52,0,0,1,349,63.13a.58.58,0,0,1-.48.27.64.64,0,0,1-.69-.6c0-.18.07-.34.38-.94a30.42,30.42,0,0,0,2.2-5.73c-.32.06-1.79.34-2,.34a.58.58,0,0,1-.6-.62c0-.62.13-.63,2.94-.94.14-.59.36-1.57.5-2.52.06-.42.2-.64.59-.64s.7.24.7.6-.49,2.37-.5,2.44A10.66,10.66,0,0,1,353.35,54.68Zm4.47-.67a15.29,15.29,0,0,1,2.41,4.71.75.75,0,0,1-.76.66c-.34,0-.49-.15-.7-.71a16.26,16.26,0,0,0-2.13-4c-.21-.28-.28-.39-.28-.6a.64.64,0,0,1,.69-.6C357.33,53.45,357.55,53.61,357.82,54Zm.5-2.16a4.52,4.52,0,0,1,.84,1.44.51.51,0,0,1-.52.49c-.22,0-.31-.11-.46-.34s-.45-.71-.67-1-.21-.28-.21-.43a.49.49,0,0,1,.5-.49A.66.66,0,0,1,358.32,51.85Zm1.46-.7a4.76,4.76,0,0,1,.88,1.5.5.5,0,0,1-.5.48c-.15,0-.27-.07-.42-.32a8.77,8.77,0,0,0-.74-1.09c-.14-.17-.2-.24-.2-.41a.51.51,0,0,1,.49-.45A.61.61,0,0,1,359.78,51.15Z"/><path class="cls-2" d="M366.61,59.94a4.74,4.74,0,0,1-2,3.32,5.91,5.91,0,0,1-2.65,1,.57.57,0,0,1-.56-.6c0-.34.21-.52.56-.62a4.78,4.78,0,0,0,2.66-1.48,4,4,0,0,0,.76-1.64h-1.09c-.88,0-1.25-.36-1.25-1.25V53c0-.88.36-1.25,1.25-1.25h6.82c.88,0,1.25.36,1.25,1.25v5.67c0,.88-.36,1.25-1.25,1.25h-1.4v2.38c0,.48.14.52,1.58.52.91,0,1.48,0,1.63-.71.06-.21.08-.39.13-.59a.62.62,0,0,1,1.21.18,2.68,2.68,0,0,1-.67,1.79,3.45,3.45,0,0,1-2.28.49c-2.19,0-2.76-.15-2.76-1.39V59.93h-1.91ZM364.2,54.1h6.92v-.84c0-.25-.1-.35-.35-.35h-6.22c-.25,0-.35.1-.35.35v.84Zm0,1v1.26h6.92V55.15Zm0,2.34v.94c0,.25.1.35.35.35h6.22c.25,0,.35-.1.35-.35v-.94Z"/><path class="cls-2" d="M379.64,63.24c0,.49-.21.74-.64.74s-.62-.22-.62-.66c0-.71.1-3.63.11-4-.2.24-.49.6-.73.95s-.66,1-1,1.39-.45.62-.77.62a.63.63,0,0,1-.62-.57c0-.22.1-.38.36-.73a26.93,26.93,0,0,0,1.91-2.75,11.86,11.86,0,0,0,.91-1.76c0-.24,0-.49,0-.69a14.31,14.31,0,0,1-2.41.55.57.57,0,0,1-.55-.64c0-.29.14-.5.55-.59a16.54,16.54,0,0,0,2.41-.56,12.58,12.58,0,0,1,.11-2.42.54.54,0,0,1,.56-.46c.45,0,.69.27.69.57s-.13,1.72-.14,2a.66.66,0,0,1,.53.63,1.26,1.26,0,0,1-.27.7c-.46.8-.48.81-.43,1,1.69-1.39,3.31-2.66,4.45-2.66a1.64,1.64,0,0,1,1.67,1.67c0,.32-.07,1.08-.14,1.67,0,0-.35,2.72-.35,3.88,0,.21,0,.69.41.69s1.23-.7,1.6-1.16c.15-.18.25-.31.5-.31a.67.67,0,0,1,.64.64c0,.6-1.64,2.16-2.93,2.16-1.47,0-1.47-1.47-1.47-1.89a27.92,27.92,0,0,1,.31-3.53c.08-.67.2-1.53.2-1.83,0-.14,0-.81-.56-.81-.85,0-3.54,2.16-4.31,2.94C379.64,59.24,379.64,62.26,379.64,63.24Z"/><path class="cls-2" d="M396.29,56.31c2.38,0,3.75,1.51,3.75,3.22,0,2.84-3.19,4-5.73,4-1.68,0-2.84-.74-2.84-1.89s.83-1.82,2.21-1.82a3,3,0,0,1,3,2.13c.5-.15,2.09-.9,2.09-2.37,0-.71-.38-2.2-2.68-2.2A6.85,6.85,0,0,0,391,59.85c-.36.35-.56.49-.84.49a.7.7,0,0,1-.66-.67c0-.24.1-.36.59-.77s2.63-2.4,3.08-2.77,1.13-1,1.6-1.44,1-.87,1.41-1.23a38.34,38.34,0,0,1-4.38.38c-.53,0-.81-.21-.81-.67a.55.55,0,0,1,.52-.6c.31,0,.59,0,1.16-.06,1.08,0,2.31-.13,3.36-.22.6-.06,1.11-.11,1.37-.11a.79.79,0,0,1,.84.73c0,.35-.17.49-.6.85s-3.67,3-3.66,3.05A6.2,6.2,0,0,1,396.29,56.31ZM393.61,61c-.77,0-.94.39-.94.6s.07.87,1.77.87a4.08,4.08,0,0,0,1.11-.13A1.94,1.94,0,0,0,393.61,61Z"/><path class="cls-2" d="M405.09,62a.92.92,0,0,1-1.83,0,.92.92,0,1,1,1.83,0Zm-1.64-8.55c0-.59.21-.84.71-.84s.76.31.74.84l-.14,6.11c0,.43-.21.69-.6.69s-.59-.27-.6-.69Z"/></g><path class="cls-2" d="M0,83.46a.6.6,0,0,1,.66-.66.6.6,0,0,1,.66.66v6a.6.6,0,0,1-.66.66A.6.6,0,0,1,0,89.44Zm6.37,0A.58.58,0,0,1,7,82.84a.59.59,0,0,1,.66.64v3.77c0,2.59-.1,4.19-1.79,5.71a7.68,7.68,0,0,1-3.95,1.82.66.66,0,0,1-.66-.69c0-.35.15-.52.59-.62a7.62,7.62,0,0,0,2.44-.94c2-1.25,2.07-3,2.07-5.24V83.48Z"/><path class="cls-2" d="M12.47,84.16c2.35,1.64,2.37,1.88,2.37,2.13a.77.77,0,0,1-.73.76c-.27,0-.42-.13-.84-.49s-1.34-1.08-1.83-1.43c-.32-.22-.64-.38-.64-.73a.71.71,0,0,1,.67-.71C11.78,83.68,12,83.83,12.47,84.16Zm9.37,2.71c0,.39-.45.95-1,1.65a19,19,0,0,1-9.27,5.87c-.41,0-.67-.31-.67-.8,0-.27.14-.52.66-.67a18.94,18.94,0,0,0,4.69-2.17A13.29,13.29,0,0,0,20.16,87c.13-.17.21-.34.32-.49a.63.63,0,0,1,.55-.34A.79.79,0,0,1,21.84,86.87Z"/><path class="cls-2" d="M27.65,85.73A12.25,12.25,0,0,1,25,89a1.24,1.24,0,0,1-.74.36.67.67,0,0,1-.66-.69c0-.24.14-.39.52-.67a10.85,10.85,0,0,0,3.32-4.86.62.62,0,0,1,.62-.48.64.64,0,0,1,.7.62,3.72,3.72,0,0,1-.45,1.28h4.15a1,1,0,0,1,1.12,1,11.33,11.33,0,0,1-3.75,7A10.47,10.47,0,0,1,25.31,95a.67.67,0,0,1-.63-.7c0-.32.2-.48.66-.64a12.25,12.25,0,0,0,3.85-2.34,10.32,10.32,0,0,0,3-5.45c0-.1,0-.15-.21-.15Z"/><path class="cls-2" d="M41.54,85.68c1.08,0,2.27.59,2.27,2.93a13.57,13.57,0,0,1-1,4.92,1.57,1.57,0,0,1-1.41,1A4.75,4.75,0,0,1,39.5,94c-.22-.13-.42-.28-.42-.56a.64.64,0,0,1,.6-.69,1.14,1.14,0,0,1,.53.18,2.77,2.77,0,0,0,1,.34c.43,0,.66-.74.84-1.33a12.74,12.74,0,0,0,.52-3.35c0-1.71-.78-1.75-1.25-1.75a13.15,13.15,0,0,0-1.46.15,38.85,38.85,0,0,1-2.65,7.1.52.52,0,0,1-.52.29.64.64,0,0,1-.69-.59c0-.17.06-.31.38-.92a32.26,32.26,0,0,0,2.21-5.71c-.32,0-1.83.32-2,.32a.6.6,0,0,1-.6-.67c0-.52.31-.59,1.68-.74l1.26-.17c.2-.87.41-1.89.48-2.44s.2-.7.62-.7.69.24.69.6-.41,2-.5,2.44A11.53,11.53,0,0,1,41.54,85.68Zm4.52-.6a17.31,17.31,0,0,1,2.34,4.59.71.71,0,0,1-.74.7c-.31,0-.45-.11-.66-.67a17.67,17.67,0,0,0-2.09-3.94c-.27-.38-.36-.5-.36-.69a.65.65,0,0,1,.66-.64C45.54,84.44,45.71,84.59,46.06,85.08Z"/><path class="cls-2" d="M56.55,87.88c2.21,0,3.39,1.29,3.39,2.87a3.65,3.65,0,0,1-2.69,3.36,12.94,12.94,0,0,1-4.06.64c-.59,0-.9-.22-.9-.69s.22-.6.67-.62a10.25,10.25,0,0,0,4.31-.76,2.28,2.28,0,0,0,1.36-2c0-1.32-1.16-1.72-2.21-1.72a7.49,7.49,0,0,0-4.82,2.13.67.67,0,0,1-.56.28.63.63,0,0,1-.67-.67c0-.36.52-4.51.7-5.15a.58.58,0,0,1,.59-.42.61.61,0,0,1,.69.57,5.51,5.51,0,0,1-.11.69,29.59,29.59,0,0,0-.46,3.12A9.2,9.2,0,0,1,56.55,87.88Zm-3.13-5a15.34,15.34,0,0,0,2.34.94,6.12,6.12,0,0,1,.91.27.54.54,0,0,1,.34.53.69.69,0,0,1-.66.74A14.94,14.94,0,0,1,52.68,84c-.36-.18-.49-.34-.49-.63a.64.64,0,0,1,.63-.67A1.8,1.8,0,0,1,53.42,82.88Z"/><path class="cls-2" d="M65.94,85.7a14.17,14.17,0,0,1-3,3.42,1.34,1.34,0,0,1-.78.38.68.68,0,0,1-.64-.67c0-.25.11-.36.48-.63a12,12,0,0,0,2.34-2.35A10.78,10.78,0,0,0,65.77,83c.17-.49.45-.53.66-.53a.68.68,0,0,1,.73.6,4.85,4.85,0,0,1-.55,1.49h4.31c.6,0,.92.35.92.74a11.72,11.72,0,0,1-2.62,6,11.56,11.56,0,0,1-6,3.84.68.68,0,0,1-.62-.7c0-.31.14-.45.5-.59a11.28,11.28,0,0,0,5-3.25,18.87,18.87,0,0,0-1.6-1.06c-.38-.24-.87-.49-1.15-.66a.65.65,0,0,1-.39-.56.64.64,0,0,1,.59-.66,16.93,16.93,0,0,1,3.32,1.88,9.79,9.79,0,0,0,1.48-3.56c0-.14-.07-.2-.24-.2H65.94Zm6.23-2.13a1,1,0,0,1,.18.5.53.53,0,0,1-.48.48c-.25,0-.32-.1-.48-.35s-.35-.53-.56-.83-.28-.38-.28-.55a.49.49,0,0,1,.5-.49C71.4,82.34,71.79,83,72.17,83.57Zm1-1.42a3.5,3.5,0,0,1,.84,1.4.49.49,0,0,1-.5.46c-.22,0-.31-.1-.49-.38s-.35-.53-.55-.78-.32-.42-.32-.59a.46.46,0,0,1,.5-.46C72.8,81.8,72.91,81.9,73.12,82.15Z"/><path class="cls-2" d="M81.37,84.84H85a.83.83,0,0,1,.91.88,11.21,11.21,0,0,1-2.79,6.64,8.29,8.29,0,0,1-3.56,2.34.66.66,0,0,1-.59-.71c0-.34.21-.46.76-.73a8.31,8.31,0,0,0,4.78-6.92c0-.15-.08-.22-.28-.22H77c-.21,0-.29.08-.29.29v2.31a.6.6,0,0,1-1.2,0V85.89a.93.93,0,0,1,1-1h3.54V83.31a.58.58,0,0,1,.64-.64.59.59,0,0,1,.66.64Z"/><path class="cls-2" d="M90.17,84.16c2.35,1.64,2.37,1.88,2.37,2.13a.77.77,0,0,1-.73.76c-.27,0-.42-.13-.84-.49s-1.34-1.08-1.83-1.43c-.32-.22-.64-.38-.64-.73a.71.71,0,0,1,.67-.71C89.48,83.68,89.72,83.83,90.17,84.16Zm9.37,2.71c0,.39-.45.95-1,1.65a19,19,0,0,1-9.27,5.87c-.41,0-.67-.31-.67-.8,0-.27.14-.52.66-.67a18.94,18.94,0,0,0,4.69-2.17,13.29,13.29,0,0,0,4-3.75c.13-.17.21-.34.32-.49a.63.63,0,0,1,.55-.34A.79.79,0,0,1,99.54,86.87Z"/><path class="cls-2" d="M110.71,83.89A1,1,0,0,1,111.87,85v7.48a1,1,0,0,1-1.16,1.15h-7.54A1,1,0,0,1,102,92.52V85a1,1,0,0,1,1.16-1.15Zm-.15,1.47c0-.18-.06-.24-.22-.24h-6.82c-.17,0-.22.06-.22.24v6.82c0,.18.06.24.22.24h6.82c.17,0,.22-.06.22-.24Z"/><path class="cls-2" d="M115.12,89.42a.68.68,0,1,1,0-1.36H126a.68.68,0,1,1,0,1.36Z"/><path class="cls-2" d="M130.38,86.37a26.53,26.53,0,0,1,4.47,2.21c.42.27.62.46.62.78a.74.74,0,0,1-.64.76c-.27,0-.49-.21-.84-.42a24.87,24.87,0,0,0-3.6-1.92v6.53a.64.64,0,1,1-1.28,0V83.24a.64.64,0,0,1,1.28,0v3.13Zm4-1.39a1.33,1.33,0,0,1,.25.57.54.54,0,0,1-.53.5c-.18,0-.31-.1-.46-.36a10.29,10.29,0,0,0-.62-.88,1,1,0,0,1-.27-.55.52.52,0,0,1,.53-.49C133.55,83.78,133.77,84,134.4,85Zm1.49-.74a1.14,1.14,0,0,1,.22.53.54.54,0,0,1-.55.52c-.22,0-.35-.2-.48-.39s-.39-.59-.57-.84-.28-.35-.28-.56a.49.49,0,0,1,.5-.46C135,83,135.13,83.12,135.89,84.24Z"/><path class="cls-2" d="M141.13,93.07a2.2,2.2,0,1,1-2.2-2.2A2.19,2.19,0,0,1,141.13,93.07Zm-3.43,0a1.23,1.23,0,1,0,1.23-1.22A1.23,1.23,0,0,0,137.7,93.07Z"/></g></g></svg>