<svg xmlns="http://www.w3.org/2000/svg" viewBox="0 0 790.56 338.22"><defs><style>.cls-1{fill:#6f7478;}</style></defs><title>cyder</title><g id="レイヤー_2" data-name="レイヤー 2"><g id="レイヤー_1-2" data-name="レイヤー 1"><path class="cls-1" d="M493.82,204.73a88,88,0,0,1-7.21,35.84,101.58,101.58,0,0,1-20,29.79,94.39,94.39,0,0,1-29.79,20,89.37,89.37,0,0,1-36.08,7.45h-61.9l30.95-31.18h31A64,64,0,0,0,424.94,262a61.27,61.27,0,0,0,19.78-13.49A67.07,67.07,0,0,0,458,228.7a61.19,61.19,0,0,0,0-47.94A63.56,63.56,0,0,0,444.49,161a64.9,64.9,0,0,0-19.79-13.5,63.8,63.8,0,0,0-24-4.65h-31l-30.95-31.19h61.9a90.18,90.18,0,0,1,36.08,7.45,96.14,96.14,0,0,1,29.55,20,97.92,97.92,0,0,1,20.25,29.79A88,88,0,0,1,493.82,204.73Z"/><path class="cls-1" d="M632.47,111.64v31.19H539.38l-31-31.19Zm-93.09,77.73h93.09v30.95h-124V189.37Zm0,77.27h93.09v31.18h-124v-2.56Z"/><path class="cls-1" d="M752.39,231l38.17,66.79H755L701,204.5l27.69.23a31.38,31.38,0,0,0,31-31.18,28.93,28.93,0,0,0-9.31-21.65,29.56,29.56,0,0,0-21.65-9.07H666.52L663,139.34,647,111.64h81.68a59.77,59.77,0,0,1,43.76,18.15c12.1,12.34,18.15,26.77,18.15,43.76a58.81,58.81,0,0,1-10.94,35.14Q768.81,224.4,752.39,231Z"/><path class="cls-1" d="M64.19,111.51A76.35,76.35,0,0,1,89.93,94a83.27,83.27,0,0,1,31.49-6.06c21.81,0,40.88,7.57,56.93,23.32l2.68-2.62A18.22,18.22,0,0,1,204.1,86l3-3c-1.65-1.66-3.35-3.25-5.08-4.79a47.1,47.1,0,0,1-8.54.79,46.55,46.55,0,0,1-42.84-28.32,122.81,122.81,0,0,0-29.24-3.41A116.21,116.21,0,0,0,74.49,57a121,121,0,0,0-38.76,26,123.78,123.78,0,0,0-26,38.15A118.75,118.75,0,0,0,0,168.44a116.94,116.94,0,0,0,9.69,46.63,126.67,126.67,0,0,0,26,38.76,126.43,126.43,0,0,0,38.76,26,116.21,116.21,0,0,0,46.93,9.69,116.05,116.05,0,0,0,46.94-9.39L121.42,249a84.64,84.64,0,0,1-31.49-6A78.05,78.05,0,0,1,64.5,225.36a78.05,78.05,0,0,1-17.57-25.43,81.26,81.26,0,0,1,0-63A82.26,82.26,0,0,1,64.19,111.51Z"/><path class="cls-1" d="M213.06,103.41A13.76,13.76,0,1,1,199.3,89.65,13.76,13.76,0,0,1,213.06,103.41Z"/><path class="cls-1" d="M260,36a13.75,13.75,0,1,1-13.75-13.75A13.76,13.76,0,0,1,260,36Z"/><path class="cls-1" d="M292.63,58a12.28,12.28,0,1,1-12.28-12.28A12.28,12.28,0,0,1,292.63,58Z"/><path class="cls-1" d="M246.17,270.3v-.23l-53,68.15H153.28l73.29-93.36L153.28,151.5h39.91l53,68.16,53.22-68.16h39.44L266,244.86Zm0,0-53,67.92,53-68.15Z"/><path class="cls-1" d="M281.06,148.26a13.75,13.75,0,1,1-13.75-13.75A13.76,13.76,0,0,1,281.06,148.26Z"/><path class="cls-1" d="M228.27,35.74A35.74,35.74,0,1,1,192.53,0,35.74,35.74,0,0,1,228.27,35.74Z"/><path class="cls-1" d="M272.17,83.43a24.39,24.39,0,1,1-24.38-24.38A24.38,24.38,0,0,1,272.17,83.43Z"/><path class="cls-1" d="M283.84,22.65a9,9,0,1,1-9-9A9,9,0,0,1,283.84,22.65Z"/><path class="cls-1" d="M245.82,136.53a19.56,19.56,0,1,1-18.18-20.85A19.56,19.56,0,0,1,245.82,136.53Z"/><path class="cls-1" d="M315.9,110.4a20.13,20.13,0,1,1-20.13-20.14A20.13,20.13,0,0,1,315.9,110.4Z"/><rect class="cls-1" x="212.67" y="19.61" width="8.76" height="66.2" transform="translate(19.05 156.09) rotate(-41.22)"/><rect class="cls-1" x="270.96" y="65.79" width="8.76" height="66.2" transform="matrix(0.53, -0.85, 0.85, 0.53, 45.67, 280.13)"/><rect class="cls-1" x="200.61" y="111.17" width="66.2" height="8.76" transform="translate(24.97 271.75) rotate(-63.12)"/><rect class="cls-1" x="234.55" y="49.67" width="52.31" height="6.43" transform="translate(103.04 267.15) rotate(-65.12)"/></g></g></svg>