<svg xmlns="http://www.w3.org/2000/svg" xmlns:xlink="http://www.w3.org/1999/xlink" viewBox="0 0 224.49 64.62"><defs><style>.cls-1,.cls-2,.cls-3,.cls-5,.cls-6,.cls-7{fill-rule:evenodd;}.cls-2{fill:url(#名称未設定グラデーション);}.cls-3,.cls-4{fill:#fff;}.cls-5{fill:url(#名称未設定グラデーション_2);}.cls-6{fill:url(#名称未設定グラデーション_3);}.cls-7{fill:url(#名称未設定グラデーション_4);}</style><linearGradient id="名称未設定グラデーション" x1="-81.41" y1="-788.86" x2="-82.95" y2="-789.27" gradientTransform="translate(3215.87 34187.24) scale(38.87 43.28)" gradientUnits="userSpaceOnUse"><stop offset="0" stop-color="#00a0ff"/><stop offset="0.01" stop-color="#00a1ff"/><stop offset="0.26" stop-color="#00beff"/><stop offset="0.51" stop-color="#00d2ff"/><stop offset="0.76" stop-color="#00dfff"/><stop offset="1" stop-color="#00e3ff"/></linearGradient><linearGradient id="名称未設定グラデーション_2" x1="-117.49" y1="-774.56" x2="-119.87" y2="-774.56" gradientTransform="translate(2063.58 11172.78) scale(17.09 14.38)" gradientUnits="userSpaceOnUse"><stop offset="0" stop-color="#ffe000"/><stop offset="0.41" stop-color="#ffbd00"/><stop offset="0.78" stop-color="orange"/><stop offset="1" stop-color="#ff9c00"/></linearGradient><linearGradient id="名称未設定グラデーション_3" x1="-92.43" y1="-782.17" x2="-93.79" y2="-780.4" gradientTransform="translate(2633.88 16949.49) scale(28.06 21.62)" gradientUnits="userSpaceOnUse"><stop offset="0" stop-color="#ff3a44"/><stop offset="1" stop-color="#c31162"/></linearGradient><linearGradient id="名称未設定グラデーション_4" x1="-93.48" y1="-782.89" x2="-92.87" y2="-782.1" gradientTransform="translate(2634.14 16928.47) scale(28.06 21.62)" gradientUnits="userSpaceOnUse"><stop offset="0" stop-color="#32a071"/><stop offset="0.07" stop-color="#2da771"/><stop offset="0.48" stop-color="#15cf74"/><stop offset="0.8" stop-color="#06e775"/><stop offset="1" stop-color="#00f076"/></linearGradient></defs><title>google-play</title><g id="レイヤー_2" data-name="レイヤー 2"><g id="レイヤー_1-2" data-name="レイヤー 1"><g id="google-play"><path id="Path" class="cls-1" d="M217.42,0H7.07A7.11,7.11,0,0,0,0,7.07V57.55a7.11,7.11,0,0,0,7.07,7.07H217.42a7.11,7.11,0,0,0,7.07-7.07V7.07A7.1,7.1,0,0,0,217.42,0Z"/><path id="Fill-1" class="cls-2" d="M52.53,34.74,44.3,39.42l-.12.06L19.71,53.38c-1.44.82-2.72.72-3.5-.1a3.39,3.39,0,0,1-.78-2.36V13.7a3.37,3.37,0,0,1,.78-2.36l.13-.12,0,0s-.1.06-.14.1c.78-.82,2.06-.92,3.5-.1l24.58,14h0l8.23,4.68c2.35,1.33,2.35,3.51,0,4.85"/><path id="Shape-5" class="cls-3" d="M125.88,10.43h1.51l4.88,7.91h.17l-.17-2V10.43h1.35v10.1h-1.35l-5.22-8.25h0v8.25h-1.18V10.43Z"/><path id="Combined-Shape" class="cls-3" d="M115.11,11.78a5.28,5.28,0,0,1,7.4,0,5,5,0,0,1,1.51,3.7,5,5,0,0,1-1.51,3.7,5.28,5.28,0,0,1-7.4,0,5,5,0,0,1-1.51-3.7A4.87,4.87,0,0,1,115.11,11.78Zm3.7,7.74a3.35,3.35,0,0,0,2.69-1.18,4.37,4.37,0,0,0,1.18-2.86,3.45,3.45,0,0,0-1.18-2.86,3.66,3.66,0,0,0-5.18-.2l-.2.2a4.08,4.08,0,0,0-1.18,2.86,3.45,3.45,0,0,0,1.18,2.86,3.34,3.34,0,0,0,2.69,1.18Z"/><path id="Shape-6" class="cls-3" d="M102.49,11.61V10.43h6.9v1.18h-2.86v8.92h-1.18V11.61Z"/><rect id="Rectangle-path" class="cls-4" x="99.46" y="10.43" width="1.35" height="10.1"/><path id="Shape-7" class="cls-3" d="M87.51,11.61V10.43h7.07v1.18H91.72v8.92H90.37V11.61Z"/><path id="Shape-8" class="cls-3" d="M80.27,10.43h5.89v1.18H81.62v3.2h4.21v1.35H81.62v3.2h4.54v1.18H80.27Z"/><path id="Shape-9" class="cls-3" d="M69.84,11.78a5,5,0,0,1,3.7-1.51,4.6,4.6,0,0,1,2,.5A3.64,3.64,0,0,1,77.07,12l-.84.84a3.15,3.15,0,0,0-2.69-1.18,3.35,3.35,0,0,0-2.69,1.18,3.47,3.47,0,0,0-1.18,2.86,3.45,3.45,0,0,0,1.18,2.86,4.38,4.38,0,0,0,2.69,1.18,3.68,3.68,0,0,0,2.86-1.18,2.79,2.79,0,0,0,.84-2h-3.7V15.15h4.88V16a4.59,4.59,0,0,1-1.18,3.37,5.28,5.28,0,0,1-7.4,0,5,5,0,0,1-1.51-3.7,5.09,5.09,0,0,1,1.51-3.88Z"/><path id="Shape-10" class="cls-3" d="M201.77,55.87H198.4l3.2-7.07L196,36.18h3.37l3.7,9.09h.17l3.54-9.09h3.53Z"/><path id="Shape-11" class="cls-3" d="M189.49,35.67c-2.36,0-4.71,1-5.55,3.2l2.86,1.18a3,3,0,0,1,2.86-1.52A3.18,3.18,0,0,1,193,41.22v.17a6.76,6.76,0,0,0-3.2-.84c-3,0-6.06,1.68-6.06,4.71,0,2.86,2.52,4.71,5.22,4.71a4.76,4.76,0,0,0,4-2h.17v1.68h3V41.55c-.35-3.86-3.21-5.88-6.74-5.88Zm-.34,11.45c-1,0-2.52-.5-2.52-1.85,0-1.68,1.85-2.19,3.37-2.19a6.46,6.46,0,0,1,2.86.67,3.93,3.93,0,0,1-3.71,3.37Z"/><rect id="Rectangle-path-2" class="cls-4" x="178.55" y="28.61" width="3.2" height="21.03"/><path id="Shape-12" class="cls-3" d="M170,28.61H162.4v21h3.2V41.74H170a6.57,6.57,0,1,0,.65-13.13Zm.17,10.1H165.6V31.47h4.54a3.7,3.7,0,0,1,3.7,3.53,4,4,0,0,1-3.7,3.71Z"/><path id="Shape-13" class="cls-3" d="M149.44,47.12a3.63,3.63,0,0,1-3.53-2.19l9.59-4-.34-.84a6.54,6.54,0,0,0-6.06-4.54c-3.7,0-6.73,2.86-6.73,7.24A7,7,0,0,0,149.22,50h.22a6.92,6.92,0,0,0,5.89-3.2L153,45.1a3.8,3.8,0,0,1-3.53,2Zm-.17-8.75A3,3,0,0,1,152,39.88l-6.39,2.69a3.88,3.88,0,0,1,3.52-4.2Z"/><rect id="Rectangle-path-3" class="cls-4" x="137.66" y="28.61" width="3.2" height="21.03"/><path id="Shape-14" class="cls-3" d="M132.61,36.17v1.18h-.17a4.83,4.83,0,0,0-3.7-1.68,7.23,7.23,0,0,0-6.9,7.24A7,7,0,0,0,128.71,50h0a4.86,4.86,0,0,0,3.7-1.68h.17v1c0,2.69-1.51,4.21-3.87,4.21A3.72,3.72,0,0,1,125.21,51l-2.69,1.18a6.93,6.93,0,0,0,6.4,4.21c3.7,0,6.73-2.19,6.73-7.4V36.18h-3Zm-3.7,10.94a4.17,4.17,0,0,1-4-4.31v-.07a4.18,4.18,0,0,1,4-4.37h.07c2.19,0,3.87,1.85,3.87,4.38C132.78,45.43,131.1,47.11,128.91,47.11Z"/><path id="Shape-15" class="cls-3" d="M113.26,35.67A7.08,7.08,0,0,0,106,42.59v.32a7.18,7.18,0,0,0,7.13,7.24h.11a7.08,7.08,0,0,0,7.24-6.92v-.32a7.08,7.08,0,0,0-6.92-7.24Zm0,11.45a4.18,4.18,0,0,1-4-4.31v-.06a4.18,4.18,0,0,1,4-4.37h.07a4.08,4.08,0,0,1,4,4.1,2.44,2.44,0,0,1,0,.27,4.07,4.07,0,0,1-3.77,4.36Z"/><path id="Shape-16" class="cls-3" d="M97.61,35.67a7.08,7.08,0,0,0-7.24,6.92v.32a7.18,7.18,0,0,0,7.13,7.24h.11a7.08,7.08,0,0,0,7.24-6.92v-.32a7.08,7.08,0,0,0-6.92-7.24Zm0,11.45a4.18,4.18,0,0,1-4-4.31v-.06a4.18,4.18,0,0,1,4-4.37h.07a4.08,4.08,0,0,1,4,4.1,2.44,2.44,0,0,1,0,.27,4.07,4.07,0,0,1-3.77,4.36Z"/><path id="Shape-17" class="cls-3" d="M86.84,47a10.27,10.27,0,0,1-7.74,3.2A11.34,11.34,0,0,1,67.83,39,11.35,11.35,0,0,1,79.1,27.93a10.8,10.8,0,0,1,7.57,3l-2.19,2a8,8,0,0,0-5.55-2.19A7.83,7.83,0,0,0,71,38.55v.32A7.94,7.94,0,0,0,78.82,47h.11a7.42,7.42,0,0,0,5.55-2.19,6.37,6.37,0,0,0,1.68-3.87H78.92v-3H89.18a6.42,6.42,0,0,1,.17,1.85A10.86,10.86,0,0,1,86.84,47Z"/><path id="Fill-21" class="cls-5" d="M44.11,39.5l-6.94-7v-.49l6.94-7,8.38,4.76c2.35,1.34,2.35,3.52,0,4.85l-8.23,4.67-.15.11"/><path id="Fill-23" class="cls-6" d="M44.27,39.41l-7.1-7.1-21,21c.78.82,2.06.92,3.5.1l24.56-14"/><path id="Fill-26" class="cls-7" d="M44.27,25.21l-24.56-14c-1.44-.82-2.72-.72-3.5.1l21,21,7.1-7.1"/></g></g></g></svg>