<svg xmlns="http://www.w3.org/2000/svg" viewBox="0 0 21 21"><defs><style>.cls-1{fill:none;stroke:#3b4043;stroke-miterlimit:10;}.cls-2{fill:#3b4043;}</style></defs><title>hint</title><g id="レイヤー_2" data-name="レイヤー 2"><g id="レイヤー_1-2" data-name="レイヤー 1"><g id="グループ化_801" data-name="グループ化 801"><g id="Icon_-_Attention" data-name="Icon - Attention"><path id="パス_35" data-name="パス 35" class="cls-1" d="M10.5.5a10,10,0,1,0,10,10A10,10,0,0,0,10.5.5Z"/></g><g id="グループ化_800" data-name="グループ化 800"><circle id="楕円形_264" data-name="楕円形 264" class="cls-2" cx="10.49" cy="5.78" r="0.91"/><path id="パス_255" data-name="パス 255" class="cls-2" d="M12.32,14.92h-.91V8.22a.61.61,0,0,0-.61-.61H8.67a.61.61,0,0,0-.61.61h0a.61.61,0,0,0,.61.61h.92v6.7a.61.61,0,0,0,.61.61h2.13a.61.61,0,0,0,.61-.61h0a.62.62,0,0,0-.62-.61Z"/></g></g></g></g></svg>