<svg xmlns="http://www.w3.org/2000/svg" viewBox="0 0 69.9 66.29"><defs><style>.cls-1{fill:#959798;}</style></defs><title>アセット 1</title><g id="レイヤー_2" data-name="レイヤー 2"><g id="レイヤー_1-2" data-name="レイヤー 1"><path id="パス_143" data-name="パス 143" class="cls-1" d="M61.54,8.65c.49-.49,1.14-.82,1.63-1.31A11.58,11.58,0,0,1,66.11,6a.93.93,0,0,0,.65-1.15.94.94,0,0,0-.65-.65,13.53,13.53,0,0,0-9.8-.33A22.37,22.37,0,0,0,27.74,6.68a22.77,22.77,0,0,0-6.69,16A10.35,10.35,0,0,1,17,31a10.55,10.55,0,0,1-13.06-.33l-.16-.16A2.33,2.33,0,0,0,0,32.32,35,35,0,1,0,61.54,8.65ZM16.16,53.54s6.53-29.22,18-18C45.38,46.85,16.16,53.54,16.16,53.54ZM49.3,14a2.57,2.57,0,0,1-2,1,3.38,3.38,0,0,1-2.12-.82,3.15,3.15,0,0,1-.82-2.12v-.49a.62.62,0,0,1,.16-.49c0-.16.16-.33.33-.49s.16-.33.33-.49a3.06,3.06,0,0,1,4.24,0,3.15,3.15,0,0,1,.82,2.12A2.57,2.57,0,0,1,49.3,14Z"/></g></g></svg>