<svg xmlns="http://www.w3.org/2000/svg" viewBox="0 0 224.07 47.66"><defs><style>.cls-1{fill:#fbb143;}</style></defs><title>logo-color</title><g id="レイヤー_2" data-name="レイヤー 2"><g id="レイヤー_1-2" data-name="レイヤー 1"><g id="グループ化_619" data-name="グループ化 619"><path id="パス_105" data-name="パス 105" class="cls-1" d="M105.78,17.56a4,4,0,0,0-1.86-.41,2.91,2.91,0,0,0-2.79,2.07l-5,11.48L90.79,19.22a3.29,3.29,0,0,0-2.9-2.07,2.9,2.9,0,0,0-1.55.41,2.81,2.81,0,0,0-1.65,2.49A2.68,2.68,0,0,0,85,21.29L93.07,36.9l-3.31,6.93A2.66,2.66,0,0,0,89.45,45a2.43,2.43,0,0,0,1.86,2.48,5.46,5.46,0,0,0,1.14.21,2.92,2.92,0,0,0,2.79-2L106.82,21.5a4,4,0,0,0,.31-1.45A2.19,2.19,0,0,0,105.78,17.56Z"/><path id="パス_106" data-name="パス 106" class="cls-1" d="M121.91,17.05a9.08,9.08,0,0,0-6.62,2.79l-.1-.41a2.5,2.5,0,0,0-2.58-2.38,2.19,2.19,0,0,0-2.07,1,2.44,2.44,0,0,0-.41,1.55V36.48a1.9,1.9,0,0,0,.41,1.34,3.28,3.28,0,0,0,4.61.53l.25-.22a2.67,2.67,0,0,0,.72-1.76v-9.1a4.63,4.63,0,0,1,1.34-3.1,4.59,4.59,0,0,1,3.52-2,2.24,2.24,0,0,1,2.28,1.55,6.4,6.4,0,0,1,.52,2.58v10a2.07,2.07,0,0,0,.41,1.34A2.9,2.9,0,0,0,126.78,39a3.07,3.07,0,0,0,2.48-1,2.34,2.34,0,0,0,.62-1.65V25.93c0-2.79-.62-5-2-6.41A8.11,8.11,0,0,0,121.91,17.05Z"/><path id="パス_107" data-name="パス 107" class="cls-1" d="M150.86,31.83a3.05,3.05,0,0,0-2-.83,2.21,2.21,0,0,0-1.86.93A4.78,4.78,0,0,1,143.42,34a4.55,4.55,0,0,1-3.52-1.76,6.19,6.19,0,0,1-1.34-4.14A7.48,7.48,0,0,1,139.7,24a4.18,4.18,0,0,1,3.51-1.86,4.45,4.45,0,0,1,3.41,1.76,2.42,2.42,0,0,0,2.07,1,2.48,2.48,0,0,0,1.86-.72,2.53,2.53,0,0,0,.93-2A3.92,3.92,0,0,0,150,19.41a9.46,9.46,0,0,0-6.93-2.48,14.41,14.41,0,0,0-3,.31,9.87,9.87,0,0,0-6.62,5.17,11.5,11.5,0,0,0-1.34,5.69,12,12,0,0,0,2.9,8.06,10.69,10.69,0,0,0,8.07,3.31,9.68,9.68,0,0,0,7.45-2.9,3.79,3.79,0,0,0,1-2.38A2.22,2.22,0,0,0,150.86,31.83Z"/><path id="パス_108" data-name="パス 108" class="cls-1" d="M189.94,16.32a10.39,10.39,0,0,0-7.55,3,11.07,11.07,0,0,0-3,8.17A11.35,11.35,0,0,0,182,35.25a10.74,10.74,0,0,0,16.65-.94,12.27,12.27,0,0,0,1.86-6.82,11,11,0,0,0-3.1-8.17A10,10,0,0,0,189.94,16.32Zm3.42,15.41A3.78,3.78,0,0,1,190,33.59,4,4,0,0,1,186,30.9a8.36,8.36,0,0,1-.62-3.31,7.27,7.27,0,0,1,1-4.14,4,4,0,0,1,6.72-.1,7.36,7.36,0,0,1,1.14,4.24,6.54,6.54,0,0,1-.93,4.14Z"/><path id="パス_109" data-name="パス 109" class="cls-1" d="M223.55,9.6A2.88,2.88,0,0,0,221,8.36a2.73,2.73,0,0,0-2.38,1A2.34,2.34,0,0,0,218,11v7.34a8.18,8.18,0,0,0-5.38-1.76,8.93,8.93,0,0,0-7.86,4.14,11.52,11.52,0,0,0-2.07,7,11.7,11.7,0,0,0,2,7,9,9,0,0,0,8,4.14,8.12,8.12,0,0,0,4.76-1.34,6.37,6.37,0,0,0,1.45-1.34l.1.31a2.48,2.48,0,0,0,2.59,2.27,2.61,2.61,0,0,0,2.07-.93,3,3,0,0,0,.52-1.76V10.94A3.24,3.24,0,0,0,223.55,9.6Zm-5.48,16.86V28a5.88,5.88,0,0,1-1.76,4.34,4.07,4.07,0,0,1-2.9,1.24,4.21,4.21,0,0,1-3.83-2.27,8.24,8.24,0,0,1-.83-3.62,7.48,7.48,0,0,1,1.14-4.14,4.19,4.19,0,0,1,3.52-1.86,4,4,0,0,1,2.38.72A4.62,4.62,0,0,1,218.07,26.46Z"/><path id="パス_110" data-name="パス 110" class="cls-1" d="M39,5.47c.31-.31.72-.52,1-.83a7.56,7.56,0,0,1,1.86-.83.59.59,0,0,0,0-1.13,8.56,8.56,0,0,0-6.2-.21,14.18,14.18,0,0,0-18.1,1.76,14.44,14.44,0,0,0-4.24,10.13,6.53,6.53,0,0,1-2.59,5.27,6.67,6.67,0,0,1-8.27-.21l-.1-.1a1.48,1.48,0,0,0-2.07.25,1.41,1.41,0,0,0-.31.88,22.14,22.14,0,1,0,39-15ZM10.24,33.9s4.14-18.51,11.37-11.37S10.24,33.9,10.24,33.9Zm21-25A1.63,1.63,0,0,1,30,9.5,2.12,2.12,0,0,1,28.65,9a2,2,0,0,1-.52-1.34V7.34a.39.39,0,0,1,.1-.31c0-.1.1-.21.21-.31s.1-.21.21-.31a2,2,0,0,1,2.69,0,2,2,0,0,1,.52,1.34A1.64,1.64,0,0,1,31.23,8.88Z"/><path id="パス_111" data-name="パス 111" class="cls-1" d="M70.42.81a14.91,14.91,0,0,1,8,2.17c2.17,1.45,3.31,2.9,3.31,4.55a3.17,3.17,0,0,1-3,3.1,3.57,3.57,0,0,1-2.38-1.24A7.86,7.86,0,0,0,70.42,6.7a8.54,8.54,0,0,0-4.24.93,3.59,3.59,0,0,0-1.86,3.31A3.72,3.72,0,0,0,66,14.15a24.59,24.59,0,0,0,6,2.48c4.14,1.34,6.93,2.69,8.38,3.93a9.37,9.37,0,0,1,3.3,7.55,10.25,10.25,0,0,1-3.93,8.48c-2.38,1.86-5.48,2.69-9.31,2.69a15.92,15.92,0,0,1-9.51-2.9C58.32,34.62,57,32.87,57,31.11a2.86,2.86,0,0,1,.62-1.86A2.72,2.72,0,0,1,59.88,28a2.82,2.82,0,0,1,1.76.62,5,5,0,0,1,.93,1,10.55,10.55,0,0,0,7.76,3.62A8.41,8.41,0,0,0,75.09,32a4,4,0,0,0,2-3.62A4.54,4.54,0,0,0,75,24.59,28.19,28.19,0,0,0,68.68,22,27.82,27.82,0,0,1,61,18.39c-2.07-1.65-3.1-4-3.1-7.24a9.43,9.43,0,0,1,2.59-6.72C63,2.06,66.18.81,70.42.81Z"/><path id="パス_112" data-name="パス 112" class="cls-1" d="M162.13,25.32V36.69a2.7,2.7,0,0,1-.52,1.55,3.54,3.54,0,0,1-3,1.24,3.7,3.7,0,0,1-2.69-.93,2.24,2.24,0,0,1-.72-1.76V7.84c0-3.83,1.86-5.69,5.69-5.69h5.27a18.51,18.51,0,0,1,9.72,2.28A9.61,9.61,0,0,1,181,13.32c0,4.24-1.55,7.34-4.65,9.41-2.59,1.65-6,2.48-10.34,2.48h-3.83Zm0-5.69h3.93a9.34,9.34,0,0,0,5.69-1.55,5.32,5.32,0,0,0,2-4.45A4.88,4.88,0,0,0,171,9a10.43,10.43,0,0,0-4.76-1h-3.1a1,1,0,0,0-1.14.92.81.81,0,0,0,0,.22V19.64h.11Z"/></g></g></g></svg>