<?xml version="1.0" encoding="utf-8"?>
<!-- Generator: Adobe Illustrator 23.0.3, SVG Export Plug-In . SVG Version: 6.00 Build 0)  -->
<svg version="1.1" id="_x31_" xmlns="http://www.w3.org/2000/svg" xmlns:xlink="http://www.w3.org/1999/xlink" x="0px" y="0px"
	 viewBox="0 0 427.5 91" style="enable-background:new 0 0 427.5 91;" xml:space="preserve">
<style type="text/css">
	.st0{fill:#FFFFFF;}
</style>
<path class="st0" d="M201.9,33.6c-1.1-0.6-2.3-0.8-3.5-0.8c-1.6,0-3.9,0.7-5.3,3.8l-9.4,21.9l-10.3-21.9c-1.5-3.2-3.9-3.9-5.6-3.9
	c-1,0-2,0.3-3,0.8c-2,1.1-3.1,2.7-3.1,4.8c0,0.8,0.2,1.6,0.6,2.4l15.2,29.7l-6.2,13.1c-0.4,0.7-0.5,1.5-0.5,2.3c0,2.4,1.3,4,3.6,4.8
	c0.8,0.2,1.5,0.4,2.2,0.4c1.6,0,3.9-0.7,5.4-3.8L204.2,41c0.5-1,0.7-1.9,0.7-2.8C204.9,36.1,203.9,34.5,201.9,33.6z"/>
<path class="st0" d="M232.6,32.5c-3.1,0-6.1,0.8-8.9,2.5c-1.4,0.8-2.6,1.8-3.8,3l-0.1-0.8c-0.7-3.7-3.1-4.5-5-4.5
	c-1.7,0-3.1,0.7-4,1.9c-0.6,0.8-0.9,1.8-0.9,3v32.1c0,1,0.2,1.9,0.8,2.6c1,1.6,2.7,2.4,5,2.4c1.8,0,3.3-0.6,4.4-1.7
	c0.9-0.9,1.3-2,1.3-3.3V52.4c0-2,0.9-4,2.6-5.9c2.2-2.5,4.4-3.7,6.7-3.7c2.1,0,3.5,0.9,4.4,2.9c0.6,1.3,0.9,3,0.9,4.9v19.2
	c0,1,0.2,1.9,0.8,2.6c1,1.6,2.7,2.4,5,2.4c2,0,3.5-0.6,4.7-1.9c0.7-0.9,1.1-1.9,1.1-3.1V49.6c0-5.4-1.3-9.5-3.7-12.3
	C241,34.1,237.3,32.5,232.6,32.5z"/>
<path class="st0" d="M287.9,60.8c-1.1-1-2.4-1.5-3.7-1.5c-1.5,0-2.7,0.6-3.6,1.8c-2.1,2.7-4.4,3.9-6.9,3.9c-2.6,0-4.8-1.1-6.7-3.4
	c-1.7-2.1-2.5-4.8-2.5-7.9c0-3.1,0.8-5.8,2.2-7.8c1.7-2.4,4-3.6,6.8-3.6c2.5,0,4.6,1.1,6.5,3.4c1,1.3,2.4,1.9,4,1.9
	c1.4,0,2.6-0.5,3.6-1.4c1.2-1.1,1.8-2.3,1.8-3.8c0-1.8-0.9-3.7-2.7-5.4c-3.2-3.2-7.7-4.8-13.1-4.8c-1.9,0-3.8,0.2-5.6,0.7
	c-5.6,1.4-9.9,4.8-12.6,9.9c-1.7,3.2-2.6,6.9-2.6,10.8c0,6.2,1.9,11.3,5.6,15.3c3.9,4.2,9.1,6.4,15.4,6.4c6.2,0,11-1.9,14.2-5.6
	c1.3-1.5,1.9-3,1.9-4.5C289.8,63.4,289.2,62,287.9,60.8z"/>
<path class="st0" d="M362.6,31.3c-5.8,0-10.7,1.9-14.4,5.8c-3.9,3.9-5.8,9.2-5.8,15.6c0,6,1.6,11,4.9,14.9c3.7,4.5,8.8,6.8,15.2,6.8
	c7.3,0,12.9-2.9,16.6-8.5c2.4-3.6,3.6-8,3.6-13.1c0-6.4-2-11.7-5.8-15.7C373.1,33.2,368.3,31.3,362.6,31.3z M369,60.7
	c-1.5,2.3-3.6,3.5-6.4,3.5c-3.5,0-5.9-1.7-7.4-5.1c-0.8-1.8-1.2-3.9-1.2-6.4c0-3.2,0.7-5.8,2-7.9c1.6-2.4,3.7-3.5,6.4-3.5
	c2.7,0,4.8,1.1,6.4,3.4c1.4,2,2.2,4.8,2.2,8.1C371,55.9,370.4,58.6,369,60.7z"/>
<path class="st0" d="M426.7,18.3c-1-1.6-2.7-2.4-4.9-2.4c-2,0-3.5,0.6-4.6,1.9c-0.7,0.9-1.1,1.9-1.1,3.1v14
	c-2.6-2.3-6.1-3.4-10.3-3.4c-6.3,0-11.4,2.6-15.1,7.8c-2.7,3.8-4,8.3-4,13.4c0,5.2,1.3,9.8,3.7,13.5c3.5,5.3,8.6,7.9,15.1,7.9
	c3.5,0,6.5-0.9,9.1-2.6c1.1-0.7,2-1.6,2.9-2.6l0.1,0.6c0.5,2.8,2.2,4.3,5,4.3c1.7,0,3-0.6,3.9-1.7c0.7-0.8,1-1.9,1-3.3v-48
	C427.5,19.9,427.2,19.1,426.7,18.3z M416.1,50.5v2.9c0,3.3-1.1,6-3.4,8.3c-1.7,1.7-3.5,2.5-5.6,2.5c-3.2,0-5.6-1.4-7.2-4.4
	c-1-1.9-1.6-4.2-1.6-7c0-3.2,0.8-5.8,2.2-7.9c1.7-2.3,3.9-3.5,6.7-3.5c1.6,0,3.1,0.4,4.5,1.3C414.7,44.6,416.1,47.2,416.1,50.5z"/>
<path class="st0" d="M74.5,10.5c0.6-0.5,1.3-1,2-1.5c1.1-0.7,2.3-1.3,3.5-1.7c1-0.3,1.1-1.8,0.1-2.2c-3.7-1.6-7.9-1.8-11.9-0.4
	C57.6-2.5,42.9-1.5,33.5,8c-5.4,5.3-8,12.4-8,19.4c0,3.8-1.7,7.6-5,10.1c-4.6,3.6-11.3,3.4-15.8-0.3c0,0-0.1-0.1-0.1-0.1
	C2.7,35.6-0.1,36.7,0,39c0.3,11.7,5.4,23.2,15.3,31.4C31,83.6,54.5,83.3,70,69.9C87.8,54.4,89.3,27.9,74.5,10.5z M19.5,64.7
	c0,0,8-35.3,21.7-21.7S19.5,64.7,19.5,64.7z M59.7,17c-0.7,0.7-1.6,1.1-2.5,1.1c-0.9,0-1.9-0.4-2.5-1.1c-0.7-0.6-1.1-1.6-1.1-2.5
	c0-0.2,0-0.4,0.1-0.7c0.1-0.2,0.1-0.4,0.2-0.7c0.1-0.2,0.2-0.4,0.3-0.6s0.3-0.4,0.4-0.6c1.3-1.3,3.7-1.3,5,0
	c0.7,0.7,1.1,1.6,1.1,2.5C60.7,15.4,60.3,16.4,59.7,17z"/>
<path class="st0" d="M134.4,1.7c5.6,0,10.7,1.4,15.1,4.2c4.2,2.7,6.4,5.5,6.4,8.5c0,1.5-0.5,2.8-1.5,3.9c-1.2,1.3-2.6,1.9-4.2,1.9
	c-1.5,0-3-0.8-4.5-2.4c-3.3-3.5-7.1-5.2-11.3-5.2c-3.3,0-6,0.6-8.1,1.9c-2.4,1.4-3.6,3.5-3.6,6.3c0,2.5,1.1,4.5,3.2,6.2
	c1.6,1.2,5.4,2.9,11.5,4.8c7.8,2.5,13.2,5,16,7.5c4.3,3.8,6.4,8.6,6.4,14.4c0,6.9-2.5,12.2-7.5,16.1c-4.5,3.5-10.5,5.2-17.7,5.2
	c-6.9,0-12.9-1.8-18.1-5.4c-4.9-3.4-7.4-6.8-7.4-10c0-1.3,0.4-2.5,1.2-3.6c1.1-1.5,2.5-2.3,4.2-2.3c1.2,0,2.4,0.4,3.4,1.3
	c0.3,0.3,0.9,0.9,1.8,1.9c4.3,4.6,9.3,6.9,14.9,6.9c3.7,0,6.8-0.8,9.1-2.3c2.5-1.6,3.8-3.9,3.8-6.9c0-3-1.3-5.5-3.9-7.3
	c-1.8-1.2-5.8-2.9-12-5c-6.6-2.2-11.4-4.6-14.6-7c-4-3.1-6-7.7-6-13.8c0-5,1.6-9.2,4.8-12.8C120.1,4,126.3,1.7,134.4,1.7z"/>
<path class="st0" d="M309.5,48.3V70c0,1.1-0.3,2.1-0.9,2.9c-1.2,1.6-3.1,2.4-5.7,2.4c-2.2,0-4-0.6-5.2-1.9c-0.9-0.9-1.4-2-1.4-3.4
	V15c0-7.2,3.6-10.8,10.8-10.8h10c7.4,0,13.6,1.5,18.6,4.4c6.5,3.8,9.7,9.5,9.7,17c0,8.1-3,14.1-9,17.9c-4.9,3.2-11.5,4.8-19.7,4.8
	C316.7,48.3,309.5,48.3,309.5,48.3z M309.5,37.5h7.5c4.6,0,8.2-1,10.8-3c2.5-2,3.8-4.8,3.8-8.5c0-4.1-1.7-7.1-5.1-8.9
	c-2.3-1.3-5.3-1.9-9-1.9h-5.9c-1.4,0-2.1,0.7-2.1,2.1L309.5,37.5L309.5,37.5z"/>
</svg>
