<svg xmlns="http://www.w3.org/2000/svg" viewBox="0 0 1071.14 527.58"><defs><style>.cls-1{fill:#fff;}.cls-2{fill:#fbb143;}.cls-3{fill:#3b4043;}.cls-4,.cls-6{fill:none;}.cls-4{stroke:#77b21f;stroke-linecap:round;stroke-miterlimit:10;stroke-width:3px;}.cls-5{fill:#579c2d;}</style></defs><title>not-found</title><g id="レイヤー_2" data-name="レイヤー 2"><g id="レイヤー_1-2" data-name="レイヤー 1"><path class="cls-1" d="M422.52,85.45C438.81,64.64,465.85,0,528.44,0S656,63.79,663.24,103.51s16.85,92.68-8.43,121.56S601.85,332.19,514,331,350.3,263.59,351.51,195,400.86,113.14,422.52,85.45Z"/><path class="cls-2" d="M585.9,181.53a48.75,48.75,0,0,1-97.5,0c0-26.93,26-53.56,53-53.56S585.9,154.61,585.9,181.53Z"/><path class="cls-3" d="M464.16,207.32h-6.68v12.42c0,6.41-4.54,9.75-12.56,9.75s-12.56-3.34-12.56-9.75V207.32l-37,.27c-7.61,0-12.29-4.27-12.29-11.22a12.81,12.81,0,0,1,2.81-8.42l35.8-46.89c5.08-6.55,9.62-12.42,19.9-12.42,11.89,0,15.9,4.81,15.9,11.76v50h6.68c4.27,0,6.81,3.07,6.81,8.55S468.44,207.32,464.16,207.32ZM432.1,153.88a205.18,205.18,0,0,1-11.35,18l-13.36,18.44h25v-18c0-6.14.13-12.82.27-18.44Z"/><path class="cls-3" d="M684.42,207.32h-6.68v12.42c0,6.41-4.54,9.75-12.56,9.75s-12.56-3.34-12.56-9.75V207.32l-37,.27c-7.61,0-12.29-4.27-12.29-11.22a12.81,12.81,0,0,1,2.81-8.42l35.8-46.89c5.08-6.55,9.62-12.42,19.9-12.42,11.89,0,15.9,4.81,15.9,11.76v50h6.68c4.27,0,6.81,3.07,6.81,8.55S688.69,207.32,684.42,207.32Zm-32.06-53.44a205.18,205.18,0,0,1-11.35,18l-13.36,18.44h25v-18c0-6.14.13-12.82.27-18.44Z"/><line class="cls-4" x1="657.66" y1="42.14" x2="623.76" y2="28.69"/><path class="cls-5" d="M704.07,62.15c-.45,2-11.62,2.7-11.62,2.7a4.88,4.88,0,0,1,.54,2.21c-.17.74-10.25-3.13-10.25-3.13,2.34,5.76-1.46,4.1-1.46,4.1-3.42-1-14.41-13.48-14-12.87a53.82,53.82,0,0,1,2.93,7.72c.21,1.35,1.31,6.83.45,7.15s-1.81-1.2-1.81-1.2-.73,10-1.83,10.28-3.08-2.53-3.08-2.53-.76,2.18-1.83,1.15-2.58-11.55-2.58-11.55-1.73,3-2.86,2.22-1-9.12-1.61-15.77-2.61-11.92-2.27-12.76,5.66-2.63,11-6.67,11.46-9.68,12.79-9.36.27,3.61.27,3.61,8.83-5.93,10.31-5.82.37,2.13.37,2.13,3.4-.41,3.94.59S685,32.6,685,32.6s1.77-.31,2.1.55-4.47,3.7-5.61,4.45a53,53,0,0,1-7.7,3c-.71.12,15.89,0,19,1.8,0,0,3.77,1.72-2.07,3.83,0,0,9.62,4.89,9.19,5.52a4.75,4.75,0,0,1-2,1.08s7.36,7.66,6.19,9.33"/><line class="cls-4" x1="643.67" y1="23.09" x2="633.77" y2="32.66"/><line class="cls-4" x1="639.08" y1="46.02" x2="639.04" y2="34.76"/><path class="cls-5" d="M672.52,8.63c.72.95-3.13,6.24-3.13,6.24a2.82,2.82,0,0,1,1.2.59c.27.36-5.24,3.44-5.24,3.44,3.47,1.1,1.3,2.19,1.3,2.19-1.75,1.15-11.46,1.44-11,1.5a31.93,31.93,0,0,1,4.57,1.57c.69.41,3.56,2,3.39,2.47s-1.22.37-1.22.37,4.24,4.07,3.94,4.67-2.29.44-2.29.44.7,1.16-.17,1.25-6.17-3.16-6.17-3.16.7,1.9-.07,2.12-4.5-2.94-7.7-5.18-6.34-3.29-6.59-3.75.93-3.53,1.11-7.44-.07-8.78.57-9.26,1.72,1.23,1.72,1.23.63-6.19,1.24-6.82,1.1.63,1.1.63S650.13.05,650.78.18s1.31,6,1.31,6,.52-.91,1-.74,0,3.4-.1,4.19a30.63,30.63,0,0,1-1.53,4.58c-.21.37,5.93-7.17,7.9-7.86,0,0,2.18-1.06,1,2.37,0,0,5.8-2.5,5.92-2.07A2.85,2.85,0,0,1,666,7.93s6.21-.45,6.52.7"/><path class="cls-5" d="M639,83.24c-1.38.28-5-6.58-5-6.58s-.73.87-1.25,1-.94-7.37-.94-7.37c-3,3.11-3,.24-3,.24C628.52,68,633.26,57.56,633,58A36.75,36.75,0,0,1,628.93,62c-.8.52-3.94,2.77-4.39,2.32s.24-1.49.24-1.49-6.54,2.39-7,1.77.73-2.66.73-2.66-1.59.14-1.25-.83,6.57-4.91,6.57-4.91S621.42,56,621.6,55s5.47-3.25,9.51-5.5,6.8-5,7.42-5.07,3.27,2.83,7.34,5.05S655.25,54,655.43,55s-2.21,1.19-2.21,1.19,6.26,3.9,6.61,4.86-1.24.84-1.24.84,1.23,2,.75,2.66-7-1.71-7-1.71.7,1,.25,1.49-3.61-1.77-4.41-2.28a36.29,36.29,0,0,1-4.08-4c-.28-.41,4.54,10,4.25,12.49,0,0,0,2.87-3-.22,0,0-.36,7.48-.88,7.38s-1.25-1-1.25-1-2.75,6.83-4.13,6.57"/><path class="cls-1" d="M276.69,130.63c1-3.1,2.21-7.5-2.84-9.58s-7.41,3.09-7.41,3.09L228,202.5s-3.2,5.14-7.25,3.48-2.31-7.54-2.31-7.54,27.72-70.79,29.93-78.11c1.82-6,3.46-11-.77-12.7s-6.56,3-9.48,8.48c-3.58,6.76-33.7,76.56-33.7,76.56s-2.9,5.4-6.95,3.74-2.7-7.57-2.7-7.57l27.83-82.72s2-5.34-3.09-7.41-7.32,1.87-8.76,4.8c-2.1,4.3-45.8,79-44.08,102.43a44.52,44.52,0,0,0,15,30.46L68.68,511a12,12,0,0,0,22.22,9.14l113-274.6a44.52,44.52,0,0,0,32.07-11.11C253.65,219,275.15,135.16,276.69,130.63Z"/><path class="cls-1" d="M845.78,90.82c3.65,2,7.59,7.46,7.59,7.46l213.05,372a12,12,0,0,1-4.45,16.4h0a12,12,0,0,1-16.4-4.45L941.69,300.82l-.23.13S917.2,306.78,887,254.14C795.44,94.21,842.13,88.83,845.78,90.82Z"/><path class="cls-3" d="M455.58,289.11c-2.16,0-3.71-.29-4.72-2.27-3.82-7.45-6.91-13.25-9.14-18.29h-.22c.86,3.67,1,9.29,1,18,0,1.69-.9,2.59-3.06,2.59s-3.28-.9-3.28-2.59v-21c0-2.52,1.44-4.17,4.64-4.17,2.27,0,3.56.47,4.57,2.34,4.61,8.68,7.42,14.51,9.07,18.21h.22c-.79-3.53-1-9.61-1-17.93,0-1.66,1-2.63,3.13-2.63s3.2,1,3.2,2.63v20.55C460,288.1,457.88,289.11,455.58,289.11Z"/><path class="cls-3" d="M474.94,289.36c-8.06,0-11.59-4.46-11.59-10.73,0-7.42,4.64-10.69,11.59-10.69s11.55,3.28,11.55,10.69v0C486.5,285.15,482.58,289.36,474.94,289.36Zm4.47-10.73c0-4.61-2.27-6.41-4.46-6.41s-4.5,1.91-4.5,6.41S472.54,285,475,285h0c2.34,0,4.39-2.09,4.39-6.41Z"/><path class="cls-3" d="M502.48,288.28a7.7,7.7,0,0,1-4.32,1.12c-3.92,0-7.23-1.48-7.23-8v-8.75h-1c-1.12,0-1.73-.9-1.73-2.16s.61-2.09,1.73-2.09h1v-2.59c0-1.76,1.48-2.7,3.6-2.7s3.35,1,3.35,2.7v2.59h2.88c1.12,0,1.73.83,1.73,2.09s-.61,2.16-1.73,2.16h-2.92v7.78c0,3,.68,4,2.09,4,.9,0,1.15-.25,1.84-.25,1.15,0,1.73.83,1.73,2A2.39,2.39,0,0,1,502.48,288.28Z"/><path class="cls-3" d="M536.75,266.32h-8.5a.76.76,0,0,0-.86.79v5.58h6.7c1.12,0,1.76.94,1.76,2.34s-.65,2.41-1.76,2.41h-6.66l0,9c0,1.73-1.26,2.66-3.46,2.66s-3.46-.9-3.46-2.63V266.35c0-3.53,1.3-4.79,4.93-4.79h11.3c1.15,0,1.8.94,1.8,2.34S537.87,266.32,536.75,266.32Z"/><path class="cls-3" d="M552.23,289.36c-8.06,0-11.59-4.46-11.59-10.73,0-7.42,4.64-10.69,11.59-10.69s11.55,3.28,11.55,10.69v0C563.79,285.15,559.87,289.36,552.23,289.36Zm4.47-10.73c0-4.61-2.27-6.41-4.46-6.41s-4.5,1.91-4.5,6.41,2.09,6.41,4.5,6.41h0c2.34,0,4.39-2.09,4.39-6.41Z"/><path class="cls-3" d="M584.78,289.11c-2.48,0-3.06-1.44-3.28-2.7h-.22a11.81,11.81,0,0,1-2.7,1.87,10.6,10.6,0,0,1-4.79,1.08c-2.38,0-4.36-.65-5.51-1.94s-1.66-3.28-1.66-6V270.89c0-1.73,1.3-2.7,3.49-2.7s3.42,1,3.42,2.7v8.53a7.43,7.43,0,0,0,.65,3.78,2.47,2.47,0,0,0,2.12.9,6.22,6.22,0,0,0,2.63-.65,6.7,6.7,0,0,0,2.3-1.66v-10.9c0-1.73,1.33-2.7,3.53-2.7s3.46,1,3.46,2.7v15.23C588.23,288.17,587,289.11,584.78,289.11Z"/><path class="cls-3" d="M610.26,289.11c-2.2,0-3.53-1-3.53-2.77v-8.46a7.26,7.26,0,0,0-.65-3.74,2.17,2.17,0,0,0-2-.94,5.69,5.69,0,0,0-2.45.58,13.89,13.89,0,0,0-2.63,1.84v10.76c0,1.8-1.3,2.74-3.49,2.74s-3.46-1-3.46-2.74V270.87c0-1.76,1.3-2.66,3.53-2.66,2.52,0,3.24,1.22,3.31,2.45H599a19.92,19.92,0,0,1,3.67-1.94,10.46,10.46,0,0,1,4-.76c2.38,0,4.21.61,5.33,1.91s1.69,3.28,1.69,6v10.47C613.68,288.06,612.42,289.11,610.26,289.11Z"/><path class="cls-3" d="M634.56,289.11a3.37,3.37,0,0,1-2.27-.61,2.92,2.92,0,0,1-.83-1.22,9.11,9.11,0,0,1-5.72,2.09c-6,0-9.29-4.71-9.29-10.8,0-7.88,5.15-10.62,9.07-10.62a9.45,9.45,0,0,1,5.65,1.76v-6c0-1.8,1.3-2.7,3.49-2.7s3.46,1,3.46,2.74v22.17C638.13,288.21,637.08,289.11,634.56,289.11Zm-3.34-13.18c0-2-2.12-3.2-3.74-3.2s-3.92,1.3-3.92,6c0,4.25,2.16,5.79,4.14,5.79a3.57,3.57,0,0,0,3.49-3.64Z"/><g id="レイヤー_3" data-name="レイヤー 3"><rect class="cls-6" y="0.17" width="1071.14" height="526.5"/></g></g></g></svg>