<svg xmlns="http://www.w3.org/2000/svg" viewBox="0 0 326.32 336.99"><defs><style>.cls-1,.cls-17{fill:#fff;}.cls-1,.cls-2,.cls-3{stroke:#3b4043;stroke-miterlimit:10;stroke-width:3px;}.cls-2{fill:#fbb143;}.cls-3,.cls-31{fill:none;}.cls-18,.cls-19,.cls-27,.cls-4,.cls-5{isolation:isolate;}.cls-4{font-size:4px;}.cls-18,.cls-19,.cls-27,.cls-32,.cls-4,.cls-5{fill:#3b4043;}.cls-18,.cls-4{font-family:ArialMT, Arial;}.cls-18,.cls-19,.cls-27,.cls-5{font-size:6px;}.cls-19,.cls-27,.cls-5{font-family:KozGoPr6N-Regular-83pv-RKSJ-H, Kozuka Gothic Pr6N;}.cls-6{letter-spacing:-0.09em;}.cls-7{letter-spacing:-0.11em;}.cls-8{letter-spacing:-0.04em;}.cls-9{letter-spacing:-0.1em;}.cls-10{letter-spacing:-0.08em;}.cls-11{letter-spacing:-0.16em;}.cls-12{letter-spacing:-0.08em;}.cls-13{letter-spacing:-0.01em;}.cls-14{letter-spacing:-0.14em;}.cls-15{letter-spacing:-0.05em;}.cls-16,.cls-27{letter-spacing:-0.28em;}.cls-19{letter-spacing:-0.05em;}.cls-20{letter-spacing:-0.04em;}.cls-21{letter-spacing:-0.03em;}.cls-22{letter-spacing:-0.13em;}.cls-23{letter-spacing:-0.12em;}.cls-24{letter-spacing:-0.24em;}.cls-25{letter-spacing:-0.06em;}.cls-26{letter-spacing:-0.48em;}.cls-28{letter-spacing:-0.11em;}.cls-29{letter-spacing:-0.01em;}.cls-30{letter-spacing:-0.06em;}</style></defs><title>sp-image</title><g id="レイヤー_2" data-name="レイヤー 2"><g id="レイヤー_1-2" data-name="レイヤー 1"><g id="グループ化_585" data-name="グループ化 585"><path id="パス_201" data-name="パス 201" class="cls-1" d="M324.82,337V40.83A39.33,39.33,0,0,0,285.49,1.5H40.83A39.33,39.33,0,0,0,1.5,40.83h0V337"/><path id="パス_202" data-name="パス 202" class="cls-2" d="M28.57,337V49.82H297.35V337"/><g id="グループ化_584" data-name="グループ化 584"><g id="グループ化_767" data-name="グループ化 767"><path id="長方形_406" data-name="長方形 406" class="cls-3" d="M116.62,23.85h64.76A4.63,4.63,0,0,1,186,28.48h0a4.63,4.63,0,0,1-4.63,4.63H116.62A4.63,4.63,0,0,1,112,28.48h0A4.64,4.64,0,0,1,116.62,23.85Z"/><circle id="楕円形_11" data-name="楕円形 11" class="cls-3" cx="210.6" cy="28.48" r="4.63"/></g></g><g id="グループ化_518" data-name="グループ化 518"><text class="cls-4" transform="translate(79.86 217.81)">User</text></g><text class="cls-5" transform="translate(77.98 226)"><tspan class="cls-6">アプ</tspan><tspan class="cls-7" x="10.92" y="0">リ</tspan><tspan class="cls-8" x="16.26" y="0">を</tspan><tspan class="cls-9" x="22.02" y="0">イ</tspan><tspan class="cls-10" x="27.42" y="0">ン</tspan><tspan class="cls-11" x="32.94" y="0">ス</tspan><tspan class="cls-12" x="37.98" y="0">ト</tspan><tspan class="cls-13" x="43.5" y="0">ー</tspan><tspan x="49.44" y="0">ル</tspan><tspan class="cls-6" x="55.44" y="0">す</tspan><tspan class="cls-14" x="60.9" y="0">る</tspan><tspan class="cls-15" x="66.06" y="0">し</tspan><tspan x="71.76" y="0">かな</tspan><tspan class="cls-16" x="83.76" y="0">い！</tspan></text><g id="グループ化_519" data-name="グループ化 519"><circle id="楕円形_10" data-name="楕円形 10" class="cls-17" cx="58.31" cy="221.29" r="13.26"/></g><g id="グループ化_518-2" data-name="グループ化 518-2"><text class="cls-4" transform="translate(79.86 250.54)">User</text></g><text class="cls-18" transform="translate(78.22 258.73)">App store </text><text class="cls-19" transform="translate(105.57 258.91)">でダ<tspan class="cls-9" x="11.4" y="0">ウ</tspan><tspan class="cls-20" x="16.8" y="0">ン</tspan><tspan class="cls-21" x="22.56" y="0">ロ</tspan><tspan class="cls-22" x="28.38" y="0">ー</tspan><tspan class="cls-23" x="33.6" y="0">ド</tspan><tspan class="cls-7" x="38.88" y="0">し</tspan><tspan class="cls-23" x="44.22" y="0">て</tspan><tspan class="cls-24" x="49.5" y="0">く</tspan><tspan class="cls-25" x="54.06" y="0">る</tspan><tspan class="cls-26" x="59.7" y="0">。</tspan></text><g id="グループ化_519-2" data-name="グループ化 519-2"><circle id="楕円形_10-2" data-name="楕円形 10-2" class="cls-17" cx="58.31" cy="254.02" r="13.26"/></g><g id="グループ化_518-3" data-name="グループ化 518-3"><text class="cls-4" transform="translate(79.86 283.28)">User</text></g><text class="cls-5" transform="translate(78.22 291.46)">僕は</text><text class="cls-18" transform="translate(89.35 291.46)">Google Play</text><text class="cls-27" transform="translate(120.86 291.46)">で！</text><g id="グループ化_519-3" data-name="グループ化 519-3"><circle id="楕円形_10-3" data-name="楕円形 10-3" class="cls-17" cx="58.31" cy="286.75" r="13.26"/></g><g id="グループ化_518-4" data-name="グループ化 518-4"><text class="cls-4" transform="translate(79.86 316.01)">User</text></g><text class="cls-5" transform="translate(77.98 324.2)"><tspan class="cls-6">アプリ</tspan><tspan class="cls-10" x="16.38" y="0">だ</tspan><tspan class="cls-14" x="21.9" y="0">と</tspan><tspan class="cls-11" x="27.06" y="0">よ</tspan><tspan class="cls-28" x="32.1" y="0">り</tspan><tspan x="37.44" y="0">気軽</tspan><tspan class="cls-29" x="49.44" y="0">に</tspan><tspan x="55.38" y="0">み</tspan><tspan class="cls-30" x="61.38" y="0">れ</tspan><tspan class="cls-20" x="67.02" y="0">る</tspan><tspan x="72.78" y="0">ね</tspan><tspan class="cls-26" x="78.78" y="0">。</tspan></text><g id="グループ化_519-4" data-name="グループ化 519-4"><circle id="楕円形_10-4" data-name="楕円形 10-4" class="cls-17" cx="58.31" cy="319.48" r="13.26"/></g><g id="パス_203" data-name="パス 203"><path class="cls-31" d="M40.36,58.22H285.57v138H40.36Z"/><path class="cls-32" d="M42.36,60.22v134H283.57v-134H42.36m-2-2H285.57v138H40.36Z"/></g><path id="パス_192" data-name="パス 192" class="cls-17" d="M192.69,99.91c.55-.55,1.27-.91,1.82-1.46A12.7,12.7,0,0,1,197.79,97a1,1,0,0,0,0-2,15.08,15.08,0,0,0-10.92-.36A25,25,0,0,0,155,97.73a25.41,25.41,0,0,0-7.46,17.83,11.55,11.55,0,0,1-4.55,9.29,11.78,11.78,0,0,1-14.57-.36l-.18-.18a2.6,2.6,0,0,0-4.19,2,39,39,0,1,0,68.63-26.4ZM142.08,150s7.28-32.59,20-20C174.67,142.51,142.08,150,142.08,150Zm37-44.06a2.84,2.84,0,0,1-2.18,1.09,3.9,3.9,0,0,1-2.37-.91,3.46,3.46,0,0,1-.91-2.37v-.55a.7.7,0,0,1,.18-.55c0-.18.18-.36.36-.55s.18-.36.36-.55a3.41,3.41,0,0,1,4.73,0,3.46,3.46,0,0,1,.91,2.37,2.76,2.76,0,0,1-1.08,2Z"/></g></g></g></svg>