<?xml version="1.0" standalone="no"?>
<!DOCTYPE svg PUBLIC "-//W3C//DTD SVG 20010904//EN"
 "http://www.w3.org/TR/2001/REC-SVG-20010904/DTD/svg10.dtd">
<svg version="1.0" xmlns="http://www.w3.org/2000/svg"
 width="260.000000pt" height="260.000000pt" viewBox="0 0 260.000000 260.000000"
 preserveAspectRatio="xMidYMid meet">
<metadata>
Created by potrace 1.11, written by Peter Selinger 2001-2013
</metadata>
<g transform="translate(0.000000,260.000000) scale(0.100000,-0.100000)"
fill="#000000" stroke="none">
<path d="M1425 2505 c-160 -41 -273 -105 -390 -221 -106 -105 -180 -227 -219
-364 -22 -78 -26 -103 -32 -205 -9 -156 -41 -233 -131 -315 -136 -124 -348
-131 -495 -18 -56 44 -122 37 -149 -14 -15 -28 -4 -174 22 -291 119 -535 586
-952 1124 -1005 270 -26 519 21 746 139 366 192 630 560 686 959 15 102 8 358
-11 450 -43 200 -132 398 -243 536 -18 23 -33 45 -33 51 0 15 80 68 132 87 81
31 68 71 -32 100 -79 22 -152 25 -237 9 -69 -13 -76 -13 -101 5 -51 35 -147
74 -237 97 -123 32 -275 32 -400 0z m409 -352 c37 -37 43 -85 16 -123 -34 -47
-75 -65 -121 -51 -69 21 -98 96 -59 152 43 59 117 69 164 22z m-631 -897 c99
-66 159 -156 159 -241 0 -161 -231 -320 -641 -441 -63 -19 -115 -34 -117 -34
-4 0 33 130 62 217 94 282 206 461 326 522 64 33 139 25 211 -23z"/>
</g>
</svg>
